<?xml version="1.0" encoding="UTF-8"?>
<svg viewBox="0 0 685.01532 711.65497" xmlns="http://www.w3.org/2000/svg" xmlns:xlink="http://www.w3.org/1999/xlink">
 <defs>
  <linearGradient id="b">
   <stop stop-color="#5e5b18" offset="0"/>
   <stop stop-color="#5e5b18" stop-opacity="0" offset="1"/>
  </linearGradient>
  <linearGradient id="a" x1="349.83" x2="391.05" gradientUnits="userSpaceOnUse">
   <stop stop-color="#dcc2c2" offset="0"/>
   <stop stop-color="#dcc2c2" stop-opacity="0" offset="1"/>
  </linearGradient>
  <linearGradient id="p" x1="310.34" x2="530.19" gradientUnits="userSpaceOnUse">
   <stop stop-color="#5f6d53" offset="0"/>
   <stop stop-color="#5f6d53" stop-opacity="0" offset="1"/>
  </linearGradient>
  <linearGradient id="o" x1="561.95" x2="677.75" gradientTransform="matrix(.81371 .28954 -.18823 .80306 -54.919 -151.11)" gradientUnits="userSpaceOnUse">
   <stop stop-color="#f1fad2" offset="0"/>
   <stop stop-color="#f1fad2" stop-opacity="0" offset="1"/>
  </linearGradient>
  <linearGradient id="m" x1="141.68" x2="148.66" y1="86.544" y2="97.08" gradientUnits="userSpaceOnUse">
   <stop offset="0"/>
   <stop stop-opacity="0" offset="1"/>
  </linearGradient>
  <linearGradient id="k" x1="223.59" x2="405.43" y1="57.883" y2="67.691" gradientTransform="matrix(.67842 0 0 .83588 131.61 122.58)" gradientUnits="userSpaceOnUse">
   <stop stop-color="#2d551d" offset="0"/>
   <stop stop-color="#8bd66c" stop-opacity="0" offset="1"/>
  </linearGradient>
  <linearGradient id="j" x1="404.65" x2="-12.742" y1="368.97" y2="334.97" gradientTransform="matrix(.67842 0 0 .83588 131.61 122.58)" gradientUnits="userSpaceOnUse">
   <stop stop-color="#2d341f" offset="0"/>
   <stop stop-color="#2d341f" stop-opacity="0" offset="1"/>
  </linearGradient>
  <linearGradient id="i" x1="403.97" x2="484.13" gradientUnits="userSpaceOnUse">
   <stop stop-color="#959b7f" offset="0"/>
   <stop stop-color="#959b7f" stop-opacity="0" offset="1"/>
  </linearGradient>
  <linearGradient id="h" x1="376.44" x2="532.93" gradientUnits="userSpaceOnUse">
   <stop stop-color="#487234" offset="0"/>
   <stop stop-color="#487234" stop-opacity="0" offset="1"/>
  </linearGradient>
  <linearGradient id="n" x1="37.924" x2="354.39" y1="155.62" y2="155.48" gradientTransform="matrix(.67842 0 0 .83588 131.61 122.58)" gradientUnits="userSpaceOnUse" xlink:href="#b"/>
  <linearGradient id="l" x1="158.82" x2="243.02" gradientUnits="userSpaceOnUse" xlink:href="#b"/>
  <radialGradient id="g" cx="614.62" cy="503.06" r="122.4" gradientTransform="matrix(1 0 0 1.1449 0 -72.899)" gradientUnits="userSpaceOnUse">
   <stop stop-color="#eaf5e3" offset="0"/>
   <stop stop-color="#eaf5e3" stop-opacity="0" offset="1"/>
  </radialGradient>
  <radialGradient id="f" cx="310.86" cy="499.34" r="59.985" gradientTransform="matrix(1 0 0 2.2464 0 -622.35)" gradientUnits="userSpaceOnUse">
   <stop stop-color="#537b41" offset="0"/>
   <stop stop-color="#537b41" stop-opacity="0" offset="1"/>
  </radialGradient>
  <radialGradient id="e" cx="376.36" cy="521.68" r="27.9" gradientTransform="matrix(1 0 0 2.249 0 -651.6)" gradientUnits="userSpaceOnUse">
   <stop stop-color="#5f844e" offset="0"/>
   <stop stop-color="#5f844e" stop-opacity="0" offset="1"/>
  </radialGradient>
  <radialGradient id="d" cx="592.13" cy="482.42" r="73.183" gradientTransform="matrix(1 0 0 .72476 0 132.78)" gradientUnits="userSpaceOnUse">
   <stop stop-color="#4f6943" offset="0"/>
   <stop stop-color="#4f6943" stop-opacity="0" offset="1"/>
  </radialGradient>
  <radialGradient id="c" cx="171.19" cy="606.28" r="131.83" gradientTransform="matrix(1 0 0 .88467 0 69.923)" gradientUnits="userSpaceOnUse">
   <stop stop-color="#161616" offset="0"/>
   <stop stop-color="#161616" stop-opacity="0" offset="1"/>
  </radialGradient>
 </defs>
 <g transform="matrix(.97762 0 0 1.1955 -36.052 -152.57)">
  <path d="m212.48 632.08c8.3402 3.2365 21.902 12.152 32.073 18.918 7.7652 5.1657 9.4903 4.5698 11.546 10.953 1.5223 4.7259 4.647 10.444 6.4147 15.931 1.4754 4.5803 4.522 6.0234 7.6976 10.953 2.6042 4.0423 8.3806 6.5043 11.546 8.9613l10.263 7.9656c4.1574 3.2266 4.8556 5.7599 8.9805 8.9612 5.2586 4.0812 3.8488 5.8053 3.8488 7.9656 0 0.99027-16.846-1.775-17.961-1.9914-7.3904-1.4339-15.982-2.852-21.81-3.9828-6.7507-1.3098-12.778 1.2346-16.678 1.9914-5.4073 1.0492-11.072 1.9914-17.961 1.9914-5.079 0-11.31-0.99569-17.961-0.99569-5.079 0-11.31-0.99569-17.961-0.99569-4.9796 0-12.111-0.9957-17.961-0.9957h-19.244c-6.4249 0-12.386-1.0818-17.961 0-6.418 1.2453-7.8801-4.5494-8.9805-7.9656-1.5064-4.6766 1.2829-8.7444 1.2829-13.94v-14.935c0-4.9351-4.184-9.3081-7.6976-12.944-4.0113-4.151-6.2876-5.5799-7.6976-9.957-1.4998-4.656-6.1317-9.0785-7.6976-13.94-1.8122-5.6257-3.0783-11.748-6.4147-16.927-2.8972-4.497-7.1092-8.048-8.9805-10.953l-6.4147-9.957c-2.9222-4.536-5.5077-9.3503-8.9805-12.944-3.3447-3.4611-7.1951-7.5756-10.263-9.957-4.9135-3.8134-7.9343-5.1622-11.546-7.9656-4.0363-3.1326-5.0364-5.9002-8.9805-8.9613-2.2156-1.7195-4.3663-8.5766-5.1317-10.953-1.5461-4.7998 0.90179-7.778 2.5659-12.944 1.4322-4.446 3.7173-7.5574 5.1317-11.948 1.4876-4.6182 1.1388-9.5094 2.5659-13.94 1.491-4.6289 0-11.101 0-15.931 0-5.1128 1.8596-8.4132 5.1317-10.953 1.4099-1.0943 21.143 16.409 23.093 17.923 4.6206 3.5861 8.6931 13.048 10.263 17.923 1.6696 5.1833 9.0057 7.9851 11.546 9.9569 4.0367 3.133 11.908 5.9359 15.395 7.9656 2.0834 1.2127 5.2288 8.1163 6.4147 9.957 0.97739 1.5171 1.7233 2.0062 2.5659 2.9871" fill="#100606" fill-rule="evenodd"/>
  <path d="m387.35 461.68c53.508 1.6081 108.03-22.227 140.8-65.011 23.277-21.308 61.763-5.4152 83.434-29.385 7.906-14.385 17.775-27.515 27.795-40.532 9.9005-12.28 11.211-29.095 4.8557-43.3-4.8158-15.997-16.058-31.559-12.795-48.863 8.5004-10.214 18.297 14.616 21.614 23.197 6.4903 12.837 0.13806 29.967 10.383 40.419 8.3871 5.2989 34.429 20.07 11.496 22.341-19.568-3.0867-30.766 17.076-37.642 32.086-9.6072 18.323-15.046 41.051-34.696 51.6-15.017 10.374-33.448 5.343-49.188 1.9445-34.351 4.1868-53.436 36.575-80.211 54.435-24.391 17.074-55.853 12.888-83.939 15.458-18.488 3.7749-49.862-2.279-58.417 15.81-8.0734 12.529-29.843 12.411-39.378 1.888 1.7785-17.328 26.915-12.69 38.817-20.686 18.146-5.9195 37.561-16.557 57.066-11.401z" fill="#18110b" fill-rule="evenodd" stroke="#000" stroke-width="3.115"/>
  <path d="m354.64 223.49c-0.1706-1.6163-0.28809-3.271-0.49157-4.8633l-1.4628-3.8152c0.19458-2.436 0.42847-4.8745 0.59867-7.3089 0.13878-1.9631 0.93547-2.9585 0.79679-5.0303 0.63725-1.8057-0.2246-4.6041 0.69891-6.6022 0.77572 1.9217 2.2214 3.047 2.2665 6.2702 0.36273 6.0186 1.5515 6.1047 2.684 8.7718l1.3307 8.6232c-0.73335 1.075-1.4044 2.8102-2.3375 2.8812l-4.0837 1.0733z" fill="#b1b2b4" fill-rule="evenodd" stroke="#000" stroke-width=".59267"/>
  <path d="m380.77 202.67c0.49381-1.9129 1.0246-3.7818 1.4954-5.7218l0.69843-6.1753c0.94334-2.1758 1.9049-4.2926 2.8369-6.5049 0.75228-1.7817 1.4538-1.5477 2.122-3.8745 0.91652-0.84084 1.5219-5.0399 2.6323-5.6284-0.33464 3.1714-0.09368 6.5808-1.2085 9.9336-1.9589 6.6964-1.4654 8.6456-1.9052 13.135l-2.4493 10.864c-0.70164-0.05367-1.6082 0.6625-2.0445-0.7263l-2.1776-5.3014z" fill="#b1b2b4" fill-rule="evenodd" stroke="#000" stroke-width=".59267"/>
  <path d="m374.6 210.17c0.25516-1.7307 0.45843-3.4715 0.7457-5.1957l1.6769-4.6588c-0.07331-2.364-0.18634-4.7093-0.23502-7.0849-0.0408-1.9149-0.79775-2.4928-0.55177-4.668-0.5541-1.4856 0.4619-4.7886-0.37259-6.3143-0.88409 2.3676-2.4067 4.2904-2.6164 7.5822-0.67387 6.2971-1.8833 7.0276-3.167 10.344l-1.7876 9.461c0.68869 0.69292 1.2806 2.0888 2.2229 1.6559l4.0849-1.1214z" fill="#b1b2b4" fill-rule="evenodd" stroke="#000" stroke-width=".59267"/>
  <path d="m375.49 207.66 0.81417-5.3595 1.2287-6.878 0.81417-5.3595s0.61017-0.9606 0.98673-3.1201c0.67023-3.8437 1.878-4.5596 1.878-4.5596s0.9396 2.1894 1.2379 5.1479-0.0446 6.6862-0.0446 6.6862l0.45944 5.449-0.66602 6.4017-0.39961 3.841-2.0436 1.146-4.2653-3.3951z" fill="#b1b2b4" fill-rule="evenodd" stroke="#000" stroke-width=".61984"/>
  <path d="m365.33 213.59-0.66677-4.6323-1.0348-5.838-0.66677-4.6323s-0.845-2.7581-1.0348-5.838c-0.18312-2.9713-1.3272 1.3648-1.3272 1.3648l-1.0285 4.7916-0.66046 5.9972-0.57602 5.4577 0.49787 5.7112 0.29872 3.4267 1.9637-0.09583 4.235-5.7128z" fill="#b1b2b4" fill-rule="evenodd" stroke="#000" stroke-width=".59267"/>
  <path d="m365.44 213.37-0.4595-4.7924-0.41746-6.3147-0.4595-4.7924s0.09872-3.4868-0.41746-6.3147c-0.49798-2.7282 1.4016-0.74228 1.4016-0.74228l1.9032 2.5278 1.8611 4.0501 1.6729 3.7212 0.83593 5.4502 0.50156 3.2701-1.6529 2.6968-4.7695 1.2402z" fill="#b1b2b4" fill-rule="evenodd" stroke="#000" stroke-width=".59267"/>
  <path d="m386.01 204.39c0.19193-1.7386 0.43669-3.4743 0.59588-5.2145l-0.44184-4.9246c0.67059-2.2707 1.3749-4.5134 2.0246-6.8014 0.5252-1.8439 1.4046-2.2165 1.7182-4.3831 0.91328-1.3015 0.76739-4.7502 1.9623-6.0213 0.25542 2.5106 1.2419 4.7482 0.61001 7.987-0.94479 6.2631 0.04084 7.269 0.44251 10.797l-0.66906 9.6014c-0.84253 0.50081-1.7696 1.7061-2.5722 1.0543l-3.6704-2.0945z" fill="#b1b2b4" fill-rule="evenodd" stroke="#000" stroke-width=".59267"/>
  <path d="m413.84 212.83c0.29227-2.0198 0.61776-3.9884 0.88942-6.0397l0.20259-6.6065c0.64814-2.2606 1.3149-4.4557 1.9515-6.7568 0.51404-1.8531 1.1086-1.5327 1.52-3.9829 0.70705-0.82045 0.9527-5.3002 1.8355-5.8292-0.08415 3.3952 0.3223 7.1031-0.39621 10.619-1.2136 7.0483-0.68691 9.2024-0.77801 14.011l-1.366 11.505c-0.58366-0.12558-1.2901 0.5611-1.7353-0.98183l-2.1234-5.939z" fill="#b1b2b4" fill-rule="evenodd" stroke="#000" stroke-width=".55853"/>
  <path d="m405.63 206.59c0.57513-1.5227 1.1086-3.0957 1.7095-4.5871l2.3839-3.3325c0.42948-2.4065 0.82155-4.8252 1.2742-7.2241 0.36358-1.9349-0.1553-3.0954 0.50447-5.067-0.15897-1.9056 1.3853-4.4021 0.99793-6.5646-1.2385 1.6689-2.9235 2.4014-3.7847 5.5109-1.8778 5.7374-3.0505 5.5273-4.8235 7.8298l-3.4756 8.0202c0.43734 1.2219 0.64689 3.0676 1.5323 3.3668l3.6815 2.0476z" fill="#b1b2b4" fill-rule="evenodd" stroke="#000" stroke-width=".59267"/>
  <path d="m406.91 204.79 1.8013-4.6969 2.4669-5.8853 1.8013-4.6969s0.71476-0.48244 1.4815-2.3374c1.3647-3.3017 2.5331-3.0783 2.5331-3.0783s0.33812 2.9036-0.02498 6.0752-1.4274 6.6114-1.4274 6.6114l-0.74477 5.7719-1.8929 5.8475-1.1357 3.5085-1.9634-0.44294-2.895-6.6766z" fill="#b1b2b4" fill-rule="evenodd" stroke="#000" stroke-width=".61984"/>
  <path d="m397.09 202.82 0.39999-5.1206 0.33989-6.6039 0.39999-5.1206s-0.14004-3.3956 0.33989-6.6039c0.46302-3.0952-1.4041 0.32913-1.4041 0.32913l-1.8642 3.9664-1.8041 5.4497-1.6207 4.9789-0.76683 6.0622-0.46008 3.6373 1.6777 1.425 4.7626-2.3998z" fill="#b1b2b4" fill-rule="evenodd" stroke="#000" stroke-width=".59267"/>
  <path d="m397.24 202.69 0.60822-5.1192 0.96013-6.5998 0.60822-5.1192s0.8081-3.3894 0.96014-6.5998c0.14669-3.0973 1.3375 0.34725 1.3375 0.34725l1.0812 3.9859 0.72929 5.4665 0.63876 4.9938-0.42717 6.0645-0.25631 3.6387-1.9559 1.401-4.2841-2.4596z" fill="#b1b2b4" fill-rule="evenodd" stroke="#000" stroke-width=".59267"/>
  <path d="m421.83 204.72c0.6163-1.4687 1.272-2.8814 1.8638-4.3847l0.99566-5.1528c1.1245-1.4952 2.2671-2.9297 3.3804-4.4625 0.8984-1.2336 1.6685-0.70395 2.4931-2.4594 1.0471-0.32422 1.8688-3.7681 3.122-3.7795-0.48464 2.6574-0.33907 5.7902-1.6959 8.2498-2.413 5.0356-1.9349 6.9901-2.5834 10.767l-3.106 8.5047c-0.77665-0.36995-1.8082-0.15167-2.2427-1.5831l-2.2269-5.6996z" fill="#b1b2b4" fill-rule="evenodd" stroke="#000" stroke-width=".59267"/>
  <path d="m418.89 201.34 0.84634-5.0763 1.2632-6.5122 0.84633-5.0763s0.95681-3.2868 1.2632-6.5122c0.29564-3.1118 1.291 0.59665 1.291 0.59665l0.86151 4.237 0.44462 5.6729 0.3793 5.1774-0.71572 6.0673-0.42944 3.6404-1.9816 1.0617-4.0688-3.2764z" fill="#b1b2b4" fill-rule="evenodd" stroke="#000" stroke-width=".59267"/>
  <path d="m431.88 211.66 1.6698-4.5155 2.0184-5.9979 1.6698-4.5155s0.79623-3.3961 2.0184-5.998c1.1791-2.5101-1.1652-1.076-1.1652-1.076l-2.4863 1.957-2.835 3.4395-2.5689 3.1696-2.2019 5.0552-1.3211 3.0331 0.90832 3.0298 4.2938 2.4186z" fill="#b1b2b4" fill-rule="evenodd" stroke="#000" stroke-width=".59267"/>
  <path d="m436.69 206.04 2.446-2.8394 3.2302-3.3814 2.446-2.8394s1.7963-1.2368 3.2302-3.3814c1.3834-2.069 0.43545 2.3801 0.43545 2.3801l-1.2264 4.6776-2.0106 5.2195-1.8487 4.7247-2.7697 3.8291-1.6618 2.2975-1.4499-2.062-0.82081-8.6249z" fill="#b1b2b4" fill-rule="evenodd" stroke="#000" stroke-width=".59267"/>
  <path d="m436.49 214.6 1.6698-4.5155 2.0184-5.9979 1.6698-4.5155s0.79622-3.3961 2.0184-5.998c1.1791-2.5101-1.1652-1.076-1.1652-1.076l-2.4863 1.9571-2.835 3.4395-2.5689 3.1697-2.2019 5.0552-1.3211 3.0331 0.90832 3.0298 4.2938 2.4186z" fill="#b1b2b4" fill-rule="evenodd" stroke="#000" stroke-width=".59267"/>
  <path d="m438.27 227.28c1.409-1.4764 2.8154-2.8918 4.2258-4.4058l3.9947-5.2659c1.8386-1.4663 3.6543-2.8685 5.5069-4.3746 1.493-1.212 1.7917-0.60628 3.5473-2.3644 1.0517-0.25868 3.8487-3.7666 4.8747-3.6859-2.0367 2.7178-3.8549 5.9747-6.4785 8.4232-5.0747 5.0398-5.8941 7.1003-8.7561 10.966l-7.7825 8.5833c-0.4028-0.44066-1.3765-0.29062-0.84487-1.806l1.7125-6.0703z" fill="#b1b2b4" fill-rule="evenodd" stroke="#000" stroke-width=".55853"/>
  <path d="m435.19 217.44c1.3513-0.90738 2.6978-1.8799 4.052-2.7468l3.8743-1.3336c1.745-1.712 3.4665-3.4556 5.226-5.1479 1.4179-1.3659 1.6678-2.6123 3.3483-3.8364 0.97509-1.6449 3.6806-2.7841 4.6185-4.7707-1.9766 0.64203-3.7742 0.26209-6.2785 2.2966-4.8559 3.5866-5.6898 2.7356-8.4692 3.584l-7.4812 4.5205c-0.35192 1.2492-1.2511 2.8746-0.70304 3.6316l1.8129 3.8026z" fill="#b1b2b4" fill-rule="evenodd" stroke="#000" stroke-width=".59267"/>
  <path d="m437.27 216.71 4.1905-2.7831 5.4217-3.3656 4.1905-2.7831s0.86208 0.02121 2.5622-1.0459c3.026-1.8993 3.8485-1.04 3.8485-1.04s-1.4076 2.562-3.542 4.9359-4.9956 4.5598-4.9956 4.5598l-3.9527 4.2715-4.932 3.6676-2.9592 2.2005-1.3431-1.4991 1.5113-7.1186z" fill="#b1b2b4" fill-rule="evenodd" stroke="#000" stroke-width=".61984"/>
  <path d="m449.48 225.31c1.3536-0.83952 2.7068-1.6106 4.0604-2.4924l3.7983-3.6216c1.783-0.56651 3.5456-1.0731 5.3413-1.6767 1.4472-0.48445 1.7676 0.39357 3.4572-0.55879 1.0411 0.34277 3.7071-1.9871 4.7348-1.27-1.9353 1.8844-3.6327 4.5216-6.1642 5.7392-4.8852 2.7045-5.6287 4.5742-8.3465 7.2761l-7.4609 5.1295c-0.4184-0.75166-1.3855-1.1718-0.90975-2.5901l1.4894-5.9352z" fill="#b1b2b4" fill-rule="evenodd" stroke="#000" stroke-width=".59267"/>
  <path d="m449.04 220.85 3.6322-3.6458 4.8043-4.5742 3.6322-3.6458s2.6849-2.1236 4.8043-4.5742c2.0447-2.3642 0.70606 1.2345 0.70606 1.2345l-1.7541 3.9519-2.9262 4.8803-2.6922 4.4387-4.1003 4.529-2.4602 2.7174-2.2302-0.28355-1.4161-5.0284z" fill="#b1b2b4" fill-rule="evenodd" stroke="#000" stroke-width=".59267"/>
  <path d="m453.64 236.79 3.9781-2.7115 5.1215-3.7174 3.9781-2.7115s2.6174-2.3058 5.1216-3.7174c2.4158-1.3619-0.32571-1.5522-0.32571-1.5522l-3.1604 0.15343-4.3038 1.1593-3.9306 1.0937-4.7246 2.8428-2.8347 1.7057-1.0162 2.9954 2.0967 4.4598z" fill="#b1b2b4" fill-rule="evenodd" stroke="#000" stroke-width=".59267"/>
  <path d="m460.82 235 3.6391-0.89578 4.5922-0.88281 3.6391-0.89579s2.1806 0.03351 4.5922-0.88281c2.3266-0.88404-1.0249 2.1918-1.0249 2.1918l-3.7108 3.1006-4.6639 3.0876-4.2452 2.7782-4.4765 1.5146-2.6859 0.90877 0.01389-2.5207 4.3308-7.5038z" fill="#b1b2b4" fill-rule="evenodd" stroke="#000" stroke-width=".59267"/>
  <path d="m455.7 241.86 3.9781-2.7115 5.1215-3.7174 3.9781-2.7116s2.6174-2.3058 5.1216-3.7174c2.4158-1.3619-0.32571-1.5522-0.32571-1.5522l-3.1604 0.15344-4.3038 1.1593-3.9306 1.0937-4.7246 2.8428-2.8347 1.7057-1.0162 2.9954 2.0967 4.4598z" fill="#b1b2b4" fill-rule="evenodd" stroke="#000" stroke-width=".59267"/>
  <path d="m465.59 300.13c1.6775-0.21966 3.3598-0.49504 5.034-0.68015l4.607 0.41815c2.2523-0.73016 4.4831-1.4956 6.7488-2.2039 1.8261-0.5725 2.3084-1.5045 4.4098-1.8568 1.3684-0.97685 4.6188-0.85665 5.9996-2.1305-2.3443-0.24502-4.3225-1.2644-7.4875-0.56565-6.0799 1.0587-6.8898 0.02814-10.178-0.36131l-9.2064 0.8004c-0.59851 0.8943-1.8777 1.8848-1.377 2.7256l1.4493 3.8541z" fill="#b1b2b4" fill-rule="evenodd" stroke="#000" stroke-width=".59267"/>
  <path d="m470.39 267.97c1.5604-0.87468 3.0554-1.7719 4.6562-2.6325l5.5844-2.0322c1.5418-1.3321 3.015-2.6668 4.5992-3.9972 1.2748-1.073 0.61867-1.6392 2.4754-2.7628 0.25872-1.0025 3.9763-2.4996 3.871-3.6156-2.8826 1.0224-6.3485 1.5908-8.9311 3.3442-5.3218 3.2654-7.5206 3.276-11.622 4.6933l-9.0793 4.6538c0.48076 0.60764 0.33733 1.5728 1.9556 1.64l6.4902 0.70913z" fill="#b1b2b4" fill-rule="evenodd" stroke="#000" stroke-width=".59267"/>
  <path d="m466.37 279.44c1.5288-0.62205 3.0992-1.2006 4.602-1.8495l3.5106-2.5492c2.3459-0.47697 4.6978-0.91456 7.0399-1.4159 1.8888-0.40277 2.9137 0.1336 4.8807-0.5822 1.7845 0.14913 4.379-1.5055 6.3738-1.1178-1.7647 1.3237-2.7064 3.1097-5.7824 4.0493-5.7179 2.0384-5.6904 3.2744-8.1344 5.1686l-8.1176 3.7475c-1.0951-0.44971-2.8153-0.65281-2.9694-1.5846l-1.4032-3.8662z" fill="#b1b2b4" fill-rule="evenodd" stroke="#000" stroke-width=".59267"/>
  <path d="m468.27 278.08 4.7196-1.9476 5.9445-2.6618 4.7196-1.9476s0.56238-0.75926 2.4344-1.5868c3.3321-1.473 3.2914-2.7042 3.2914-2.7042s-2.7049-0.32847-5.7669 0.08592-6.481 1.5716-6.481 1.5716l-5.5846 0.84278-5.8246 2.0555-3.4947 1.2333 0.13257 2.0683 5.9097 2.9906z" fill="#b1b2b4" fill-rule="evenodd" stroke="#000" stroke-width=".61984"/>
  <path d="m468.7 288.42 4.9163-0.47244 6.3146-0.42354 4.9163-0.47243s3.2008 0.11455 6.3146-0.42353c3.0041-0.51912-0.51793 1.4854-0.51793 1.4854l-4.0359 2.0068-5.4342 1.9579-4.9607 1.7597-5.8633 0.8689-3.518 0.52135-1.106-1.757 2.9743-5.051z" fill="#b1b2b4" fill-rule="evenodd" stroke="#000" stroke-width=".59267"/>
  <path d="m468.85 288.27 4.9455-0.69224 6.4016-1.0782 4.9455-0.69225s3.3337-0.88627 6.4016-1.0782c2.9597-0.18521-0.13348-1.4085-0.13348-1.4085l-3.6229-1.1023-5.079-0.71627-4.6439-0.62536-5.8157 0.51039-3.4894 0.30623-1.6156 2.0784 1.7057 4.4983z" fill="#b1b2b4" fill-rule="evenodd" stroke="#000" stroke-width=".59267"/>
  <path d="m469.85 271.99c1.5751-0.56801 3.1151-1.182 4.7118-1.7215l5.0634-0.73814c1.8007-1.1129 3.5536-2.2491 5.3839-3.3474 1.474-0.88659 1.2996-1.749 3.2171-2.5226 0.70907-1.1052 4.1552-1.7666 4.6626-3.1137-2.5998 0.34966-5.3803-0.00916-8.147 1.2913-5.5194 2.27-7.1005 1.6297-10.78 2.0832l-8.9372 2.7914c0.02707 0.85919-0.57988 1.9546 0.54466 2.5142l4.2804 2.763z" fill="#b1b2b4" fill-rule="evenodd" stroke="#000" stroke-width=".59267"/>
  <path d="m455.75 254.51c1.7876-0.7211 3.505-1.4598 5.3357-2.1699l6.307-1.693c1.8046-1.0907 3.534-2.1829 5.3852-3.2727 1.4898-0.87884 0.81485-1.3307 2.9486-2.2557 0.36681-0.81274 4.5773-2.0564 4.5531-2.9576-3.2535 0.8524-7.1109 1.343-10.094 2.7836-6.1196 2.6875-8.538 2.7158-13.163 3.8983l-10.365 3.8436c0.47869 0.48692 0.24172 1.2684 2.0155 1.3082l7.0778 0.51509z" fill="#b1b2b4" fill-rule="evenodd" stroke="#000" stroke-width=".55853"/>
  <path d="m450.9 251.21c1.1309-0.85711 2.3363-1.6889 3.421-2.5616l1.7879-2.87c2.0802-0.93096 4.195-1.8316 6.2537-2.7814 1.6614-0.76466 3.1078-0.57212 4.624-1.6069 1.952-0.29624 3.439-2.2328 5.7805-2.3861-0.86816 1.4767-0.55202 3.1334-3.0528 4.6069-4.438 2.9739-3.5171 3.962-4.6756 6.0561l-5.6841 4.9088c-1.4565-0.1064-3.381 0.13141-4.213-0.58234l-4.2415-2.7835z" fill="#b1b2b4" fill-rule="evenodd" stroke="#000" stroke-width=".59267"/>
  <path d="m469.59 262.57 3.4718-2.6679 4.2221-3.5284 3.4718-2.6679s0.03307-0.74209 1.3704-1.8446c2.3804-1.9625 1.4493-2.9436 1.4493-2.9436s-3.0328 0.36664-5.8983 1.4143-5.5637 2.7763-5.5637 2.7763l-5.1634 1.9807-4.5358 3.0125-2.7215 1.8075 1.6302 1.6332 8.267 1.0278z" fill="#b1b2b4" fill-rule="evenodd" stroke="#000" stroke-width=".61984"/>
  <path d="m457.94 253.83 4.74-1.5269 6.2205-1.8137 4.74-1.5269s3.3908-0.65441 6.2205-1.8137c2.73-1.1184 0.53716 1.316 0.53716 1.316l-2.7224 2.5561-4.2029 2.8429-3.8566 2.5729-5.4326 2.0668-3.2595 1.24-2.4116-1.1558-0.5727-4.7579z" fill="#b1b2b4" fill-rule="evenodd" stroke="#000" stroke-width=".59267"/>
  <path d="m453.77 250.99 3.3188-3.6301 4.112-4.7691 3.3188-3.6301s1.8134-2.6088 4.112-4.7691c2.2176-2.0842-1.5311-0.45206-1.5311-0.45206l-4.0568 2.039-4.8499 3.178-4.4046 2.9172-4.2095 4.1518-2.5257 2.4911 0.7867 1.8997 5.9292 0.57362z" fill="#b1b2b4" fill-rule="evenodd" stroke="#000" stroke-width=".59267"/>
  <path d="m451.93 245.09c0.4121-1.3099 0.74617-2.5959 1.2066-3.9205l2.6016-4.1116c-0.07293-1.5398-0.20602-3.0435-0.24165-4.6056-0.03104-1.2582-1.1628-1.1976-0.75746-2.7997-0.81157-0.66718 0.77234-3.48-0.46121-4.0082-1.3702 2.1084-3.6958 4.2966-4.0642 6.625-1.1158 4.6156-2.9503 5.82-4.9379 8.8l-2.8448 7.3931c1.027 0.05674 1.897 0.64146 3.3242-0.20568l6.1749-3.1668z" fill="#b1b2b4" fill-rule="evenodd" stroke="#000" stroke-width=".59267"/>
  <path d="m451.67 247.72 2.8966-3.8518 3.5441-5.0239 2.8966-3.8518s1.4796-2.684 3.5441-5.0239c1.9917-2.2574-1.6867-0.1938-1.6867-0.1938l-3.9358 2.4859-4.5833 3.658-4.1574 3.3508-3.7485 4.4662-2.2491 2.6797 1.1414 1.6447 6.3379-0.34019z" fill="#b1b2b4" fill-rule="evenodd" stroke="#000" stroke-width=".59267"/>
  <path d="m463.06 298.76 3.7509 1.9041 4.8788 2.7169 3.7509 1.9041s2.5825 1.8642 4.8788 2.7169c2.2153 0.82256 0.08254 1.9236 0.08254 1.9236l-2.5405 0.83226-3.6684 0.01948-3.3579-0.02309-4.3718-1.819-2.6231-1.0914-1.4639-3.1853 0.68365-5.8986z" fill="#b1b2b4" fill-rule="evenodd" stroke="#000" stroke-width=".59267"/>
  <path d="m466.25 294.18 3.8471 1.7014 5.0167 2.4529 3.8471 1.7014s2.6782 1.7239 5.0167 2.4529c2.256 0.70328 0.18499 1.9165 0.18499 1.9165l-2.4926 0.96653-3.6621 0.21504-3.3544 0.15597-4.4626-1.5833-2.6775-0.94997-1.6316-3.1028 0.3682-5.9267z" fill="#b1b2b4" fill-rule="evenodd" stroke="#000" stroke-width=".59267"/>
  <path d="m233.69 533.79c11.434-6.2272 22.954-12.28 31.987-23.31 13.022-13.798 29.439-22.627 39.303-40.631 9.0736-14.213 19.204-69.878 23.712-87.153 11.685-13.297 18.493 11.242 28.308-4.1888 5.4242-2.325 16.488 0.85711 16.476-9.0165-2.577-31.647 0.48958-63.691 7.3495-94.135 9.7319-14.523 20.911-28.893 36.261-33.366 6.2775-4.4724 11.739-7.9343 12.522 4.0845 18.949-6.39 35.113-31.385 54.417-35.231 24.532 3.9004 7.5747-45.007 32.146-46.804 10.794 0.2232 9.2085 21.075 17.76 28.502 6.3711 15.915 7.8768 25.941-11.637 14.141-30.192-6.9719-6.8891 30.977-37.413 29.34-16.607-1.1551-29.12 32.786-44.922 38.22 0.98591 13.878 6.7475 28.029-12.368 17.296-9.0074-2.5715-20.158-3.9572-27.282 6.6536 0.07239 14.941-13.297 41.006 0.25004 50.957 7.1917 6.4235 1.5689 11.891 5.8223 21.697-17.457 19.21-34.014 19.826-56.531 29.468-27.232 26.098-22.616 82.662-48.364 110.7-3.8851-34.607-32.851 26.788-51.942 32.557-19.313 4.9537-40.505 12.956-48.579 37.806-4.8622 12.924-5.2435 14.922-14.838 24.159-4.3469 6.4443-23.041 5.9963-28.046 14.35-17.936-9.0329 15.986-32.4 25.185-40.35 16.999-14.655 24.726-42.966 48.679-43.884-0.60729 0.25861 4.307-1.6064 1.7432-1.8543z" fill="#18110b" fill-rule="evenodd" stroke="#000" stroke-width="3.2049"/>
  <path d="m379.97 516.2c6.9363 28.937-21.014 32.588-29.503 50.824-4.1364 39.113 39.604-45.705 29.278 2.5697-4.4727 43.271 31.424-22.81 16.085-39.057-4.3476-14.62-5.786-21.839-4.1249-27.24s5.4807-9.37 13.531-16.717c-5.0158-10.518-8.3589-20.163-11.665-27.27-3.2351 2.4112-10.808 10.935-13.321 15.015s-3.9578 10.433-4.087 17.823 1.057 15.819 3.8054 24.052z" fill="#060d02" fill-rule="evenodd" stroke="#000" stroke-width=".75304"/>
  <path d="m344.53 220.96c24.817-31.771 71.087-44.619 99.231-12.165 16.477 13.437 26.128 35.211 33.729 57.077 5.9448 21.22 19.599 35.517 32.304 49.997 11.535 24.51 1.0076 55.504 13.056 80.032 8.3701 29.628 26.761 56.256 24.313 89.374 2.1182 44.7 19.321 86.126 45.945 115.82 11.096 16.205-108.59 21.849-123.26-29.511-15.052-20.611-23.977-34.727-43.24-53.416-33.668-32.675-41.335-87.243-55.386-134.04-14.684-23.383-46.323-16.829-57.907-44.308-8.8388-25.902 3.6571-52.265 16.254-72.414 7.8012-13.709 15.28-29.109 14.965-46.452z" fill="#3c5627" fill-rule="evenodd" stroke="#000" stroke-width=".75304"/>
  <path d="m492.22 596.07c26.653-6.3328 56.108-4.8542 80.234-19.394 6.6232 1.9237 13.973 21.058 20.526 25.211 12.173 12.583 28.727 9.0549 44.266 4.6173 18.924-5.4452 35.238-17.935 46.148-34.23 27.484-35.085 31.833-78.405 15.051-128.4-10.688-29.755-45.741-67.548-78.864-64.403-13.175-0.70496-43.639 16.324-36.641 44.338-0.11006 13.353 26.22 20.441 38.06 10.962 19.779-14.711 25.023-16.961 15.702-2.9585-9.2214 8.9643-23.202 25.124-37.048 18.09-11.566-4.0068-30.542-2.8587-33.093-18.313-2.8208-24.242 9.1292-49.672 31.05-61.177 27.485-15.953 61.853-4.3297 84.41 14.904 11.525 10.46 22.423 22.361 31.515 34.911 25.738 37.294 30.531 88.57 13.345 130.85-18.746 49.258-65.591 88.749-119.19 91.802-43.092 3.0966-84.856-17.733-115.47-46.817z" fill="#3c5627" stroke="#100606"/>
  <path d="m336.31 243.71c18.848-17.028 61.975-56.706 83.35-39.313 24.048 22.505 36.701 33.082 35.376 54.638 4.5151 11.373-2.8582 27.78 6.7912 35.54 8.761 13.136 0.76524 29.747 9.9156 42.893 6.357 15.879 20.325 30.15 18.466 47.899 1.6087 23.956 16.123 46.251 36.344 62.167 8.4275 8.685 37.722 190.4-10.436 158.94-14.062 4.4891-14.059-15.287-21.381-47.538-15.168-20.352-47.882-28.259-52.073-45.271-47.739-43.196-32.048-96.279-44.904-116.13-25.571-17.512-30.507-41.291-41.179-66.37-11.152-12.532-35.182-9.0193-43.98-23.746-6.713-13.882 2.7776-28.011 12.345-38.81 5.925-7.3472 11.605-15.601 11.366-24.896z" fill="url(#p)" fill-rule="evenodd"/>
  <path d="m348.65 251.91 8.6718 12.188c5.677 0.96327 10.885-1.078 15.935-2.6677 5.5965-0.44079 11.342 1.0665 16.968 2.0108 4.9499 1.8249 10.111 2.8411 15.003 4.791 4.6032 3.3125 7.7537 8.2521 11.952 12.048 5.4663 5.636 11.01 11.193 16.591 16.71 1.8162-3.8524 7.9727-6.6374 5.022-12.054-0.93722-3.306-3.9847-10.588-7.5474-6.2428-2.2109 4.7352-7.8676 2.8182-10.652-1.2102-5.8418-6.828-10.935-14.255-16.647-21.196-2.7712-3.4953-5.5552-6.9805-8.3188-10.482-4.5244-2.072-6.1025 3.5199-8.6189 5.7376-3.1929 3.3105-7.7719 6.2732-12.912 4.5766-5.7447-1.1433-11.712-2.0873-17.145-4.751-4.1616-3.5896-4.5072-9.3612-7.4859-13.688-1.6619 4.1543-0.14953 9.1752-0.80606 13.643l-0.00941 0.58788z" fill="url(#o)" fill-rule="evenodd"/>
  <path d="m209.97 178.46c0.66808 1.438 0.88285 2.6355 1.7972 2.8836 1.5842 0.42983-1.402 2.9742-1.7954 3.0061-0.34819 0.0282-2.1235 1.4175-2.3138 1.7305-0.89026 1.4642-1.8072-0.34129-1.9681-1.0194-0.30189-1.2727-0.38334-1.9094-0.45712-3.2916-0.05776-1.0821 1.5573-1.3584 2.1119-1.5581 0.59934-0.21582 1.8264-1.2191 2.6252-1.751z" fill="#5e5b18" fill-rule="evenodd" stroke="#000" stroke-width=".75304"/>
  <path d="m196.78 191.18c0.72818-0.8972 1.5952 4.3568 0.94029 4.7178-0.51791 0.28545-1.5958 2.1921-1.9344 2.4007-1.3184 0.81222-0.83186-0.19147-2.0162-0.55629-0.57292-0.17648-0.69468-2.347-0.69468-3.4237 0-0.18958 1.9606-1.5597 2.0841-1.7119 0.46951-0.57849 1.1024-0.91548 1.6209-1.4266z" fill="#5e5b18" fill-rule="evenodd" stroke="#000" stroke-width=".75304"/>
  <path d="m192.62 195.18c0.78146-0.96284-1.508 0.85372-2.3156 1.7832-1.067 1.2279-2.0629 2.1727-1.7946 3.495 0.2118 1.0438 1.4355 0.65189 2.0262 1.2839 1.3333 1.4266 1.7146 1.1957 2.6431-0.04895 1.2784-1.7139 1.1089-1.7051 2.0303-2.8121 0.27742-0.33329-1.2821-1.014-1.6695-1.2846" fill="#5e5b18" fill-rule="evenodd" stroke="#000" stroke-width=".75304"/>
  <path d="m187.98 200.6c0.26999-1.3306-1.3546 2.1969-1.8525 3.4237-0.62017 1.5282 0.37751 1.8917 0.92625 2.5678 0.82874 1.0211 1.0462 1.8514 1.4969 0.74072 0.37973-0.93574 2.1783-2.7012 2.6712-3.3085 0.95315-1.1744 0.89213-1.0278-0.46312-1.9972-0.89945-0.64334-1.4889-0.79087-2.7788-1.4266z" fill="#5e5b18" fill-rule="evenodd" stroke="#000" stroke-width=".75304"/>
  <path d="m186 205.24c-0.98122-0.60449 1.1622 0.67942 0.62814 2.4959-0.23657 0.80464-1.2438 2.3884-1.3894 2.5678-0.70749 0.87169-0.84682 1.7668-1.4432 2.5015-0.51526 0.63485-1.5672-0.82225-1.5672-2.2162 0-1.7554 0.66409-2.1317 0.92625-3.4237 0.03273-0.16133 2.4458-2.5238 2.8453-1.9252z" fill="#5e5b18" fill-rule="evenodd" stroke="#000" stroke-width=".75304"/>
  <path d="m183.63 212.87c-0.47675 1.8453-1.1083 2.4895-1.8666 3.4237-0.98511 1.2138-0.34173 1.5353-1.6209 1.1412-0.55156-0.1699-0.65624-1.616-0.46312-2.5678 0.1586-0.78169 1.2148-2.2819 1.3894-2.8531 0.49456-1.6181 1.5896-0.34124 2.5612 0.85592z" fill="#5e5b18" fill-rule="evenodd" stroke="#000" stroke-width=".75304"/>
  <path d="m180.61 218.29c0.70954-0.87422-0.44828 2.5495-1.1578 3.4237-0.88363 1.0887 0.322 2.5243-1.3894 1.9972-1.3158-0.40531-1.231-0.63808-0.92625-2.1398 0.22011-1.0848 0.79278-2.0962 1.1578-2.9957 0.86018-2.1197 0.59904-1.5543 2.3156-0.28531z" fill="#5e5b18" fill-rule="evenodd" stroke="#000" stroke-width=".75304"/>
  <path d="m177.82837,224.56469c.41709-1.02781-.49833,2.32585-1.15782,3.13841-.84668,1.0432-.85692,1.79728-1.8525.57062-1.17267-1.44487-.48398-1.7639.69469-2.8531 .67285-.62176.8821-1.94276 1.38938-2.56779 .39358-.48493.67733,1.09847.92625,1.71186z" fill="#5e5b18" fill-rule="evenodd" stroke="#000" stroke-width=".75304"/>
  <path d="m176.21 229.78c0.7947-0.97915-0.92624 2.6096-0.92624 3.9943 0 2.0779-1.6452 0.22542-1.8525-0.28531-0.49557-1.2212-1.6077-0.35065-1.1578-2.5678 0.24309-1.198 1.2239-1.5893 1.6209-2.5678 0.38595-0.95104 1.7765 0.59627 2.3156 1.4266z" fill="#5e5b18" fill-rule="evenodd" stroke="#000" stroke-width=".75304"/>
  <path d="m171.34 238.18c-1.0358-0.44529 1.223 0.49119 0.88147 2.3767-0.15131 0.83526-0.98629 2.5644-1.1121 2.7652-0.61144 0.97579-0.65694 1.8855-1.1723 2.708-0.44531 0.71066-1.6395-0.56916-1.7838-1.9517-0.18178-1.7411 0.43791-2.2186 0.56414-3.5413 0.01576-0.16516 2.1645-2.8876 2.6227-2.3568z" fill="#5e5b18" fill-rule="evenodd" stroke="#000" stroke-width=".75304"/>
  <path d="m169.78 246.12c-0.28177 1.9051-0.84145 2.6434-1.4968 3.6892-0.85136 1.3587-0.17995 1.5764-1.4895 1.3867-0.56466-0.0818-0.81823-1.4996-0.72525-2.474 0.07636-0.80022 0.96855-2.4542 1.0826-3.0482 0.32296-1.6826 1.5413-0.58834 2.6289 0.44629z" fill="#5e5b18" fill-rule="evenodd" stroke="#000" stroke-width=".75304"/>
  <path d="m167.35 251.98c0.61321-0.97863-0.1806 2.5991-0.7938 3.5777-0.76367 1.2187 0.58077 2.4531-1.1712 2.1992-1.347-0.19513-1.287-0.43934-1.1403-1.9767 0.10598-1.1105 0.56923-2.2037 0.83813-3.1533 0.63365-2.2376 0.43319-1.6358 2.2672-0.647z" fill="#5e5b18" fill-rule="evenodd" stroke="#000" stroke-width=".75304"/>
  <path d="m165.24 258.64c0.30726-1.085-0.2534 2.3852-0.82335 3.2948-0.73174 1.1678-0.6638 1.9173-1.7783 0.85718-1.3127-1.2487-0.66269-1.6734 0.39355-2.939 0.60297-0.72246 0.67371-2.0656 1.1121-2.7652 0.34014-0.54284 0.78554 0.98301 1.0959 1.5523z" fill="#5e5b18" fill-rule="evenodd" stroke="#000" stroke-width=".75304"/>
  <path d="m164.18 264.06c0.6868-1.0961-0.64845 2.7339-0.50506 4.1073 0.21518 2.0609-1.6084 0.48222-1.8669 0.00825-0.61799-1.1333-1.6308-0.09506-1.4142-2.3648 0.11703-1.2265 1.0493-1.7687 1.3418-2.8016 0.28431-1.0039 1.8238 0.31211 2.4444 1.0509z" fill="#5e5b18" fill-rule="evenodd" stroke="#000" stroke-width=".75304"/>
  <path d="m175.38 235.77c0.49062-1.209-1.3083 2.1826-2.0841 3.1384-0.93773 1.1554-1.1926-0.22472-2.3156-0.57063-1.5458-0.47616-0.45575-1.4629-0.23156-2.5678 0.14092-0.69449 1.3985-1.7232 1.8525-2.2825 0.90303-1.1126 1.2908 0.16382 1.8525 0.85593 0.34948 0.43059 0.6175 0.95103 0.92624 1.4266z" fill="#5e5b18" fill-rule="evenodd" stroke="#000" stroke-width=".75304"/>
  <path d="m200.49688,185.77234c.92109-.56744.69469,2.4402.69469,3.70903 0,1.58346-.15083,1.51292-.69469,2.85309-.13761.3391-2.06443,2.43183-2.39749,2.63702-.83333.51337-.17749-.08276-.81628-2.25083-.5731-1.94507-.43738-2.61024.33911-3.35746 .43696-.4205 1.59083-1.43841 1.94841-1.87899 .54982-.67743.1754-.16998.92625-1.71186z" fill="#5e5b18" fill-rule="evenodd" stroke="#000" stroke-width=".75304"/>
  <path d="m204.67 181.49c0.8342-0.51391 0.49832 2.3258 1.1578 3.1384 0.83657 1.0307 0.30927 2.1867-0.23156 2.8531-0.74753 0.92103-1.0819 1.426-2.0841 1.9972-1.0933 0.62307-0.75097 1.1397-2.0022 1.6802-0.30898 0.13348-0.30818-4.0592-0.37133-4.462-0.21599-1.3776 1.0635-1.487 1.3894-2.5678 0.45276-1.5015 0.52321-1.2844 2.142-2.6391z" fill="#5e5b18" fill-rule="evenodd" stroke="#000" stroke-width=".75304"/>
  <path d="m186.7 323.66-3.809 2.1355-5.0386 2.443-3.809 2.1355s-2.8167 0.69955-5.0386 2.443c-2.1437 1.682-0.7441-2.5744-0.7441-2.5744l1.8353-4.4024 3.0649-4.7099 2.8199-4.2543 4.299-3.0468 2.5794-1.828 2.3435 2.5688 1.4973 9.09z" fill="#b1b2b4" fill-rule="evenodd" stroke="#000" stroke-width=".75304"/>
  <path d="m186.38 320.99-2.5543 4.4184-3.5354 5.4925-2.5543 4.4184s-1.1075 0.34314-2.2046 2.0766c-1.9527 3.0854-3.8318 2.6132-3.8318 2.6132s-0.73691-3.0347-0.37335-6.1966 1.8276-6.451 1.8276-6.451l0.79561-5.7366 2.6221-5.5739 1.5733-3.3443 3.1624 0.86244 5.0727 7.4208z" fill="#b1b2b4" fill-rule="evenodd" stroke="#000" stroke-width=".78756"/>
  <path d="m188.92 324.41c-0.53232 1.6226-1.1436 3.2057-1.627 4.8526l-0.02658 5.2774c-1.3264 1.8288-2.6995 3.6061-3.9969 5.4668-1.048 1.4984-2.4221 1.2666-3.1972 3.2372-1.5552 0.68252-1.8196 4.2653-3.7938 4.7224-0.03179-2.7113-1.2007-5.6525 0.20331-8.4854 2.2984-5.67 0.95808-7.367 0.84913-11.206l2.3522-9.231c1.3366 0.07693 2.8991-0.49887 4.0138 0.71402l5.223 4.6524z" fill="#b1b2b4" fill-rule="evenodd" stroke="#000" stroke-width=".75304"/>
  <path d="m189.6 323.89c-0.60957 1.5808-1.1421 3.2065-1.7993 4.7593l-3.136 3.5947c-0.19557 2.4408-0.32872 4.8891-0.56298 7.3251-0.18648 1.9646 0.88179 3.0544 0.22851 5.091 0.64432 1.8728-1.318 4.5367-0.2554 6.6372 1.6419-1.8056 4.1905-2.7351 4.9337-5.9256 1.8335-5.9215 3.7546-5.8537 6.1229-8.3525l3.9254-8.3797c-0.95028-1.1606-1.6634-2.9678-3.1425-3.1586l-6.3143-1.5909z" fill="#b1b2b4" fill-rule="evenodd" stroke="#000" stroke-width=".75304"/>
  <path d="m227.09 347.91c0.39237 1.9606 0.85304 3.8823 1.2031 5.8668l-0.16729 6.2138c1.0573 2.2793 2.156 4.5024 3.1876 6.8164 0.83347 1.8638 2.0053 1.7223 2.5908 4.1158 1.2923 0.95199 1.3873 5.194 3.0425 5.9208 0.12442-3.1881 1.2199-6.538 0.13301-10.006-1.7422-6.8931-0.54631-8.7624-0.31598-13.271l-1.6597-11.089c-1.1345-0.03725-2.4368-0.86434-3.4243 0.45661l-4.5897 4.9764z" fill="#b1b2b4" fill-rule="evenodd" stroke="#000" stroke-width=".75304"/>
  <path d="m218.77 339.68c0.04824 1.7491 0.01129 3.5017 0.11229 5.2485l1.7148 4.8361c-0.60946 2.3348-1.2786 4.646-1.8511 6.9954-0.46392 1.8936-1.796 2.3691-1.855 4.5578-1.1963 1.4018-0.25732 4.8082-1.9109 6.2135-0.92253-2.4619-2.9599-4.5649-2.6105-7.8562 0.23197-6.3314-1.5522-7.2118-2.9169-10.666l-0.89237-9.6126c1.2468-0.59833 2.485-1.9062 3.9034-1.3555l6.3062 1.6388z" fill="#b1b2b4" fill-rule="evenodd" stroke="#000" stroke-width=".75304"/>
  <path d="m219.68 342.28 0.1878 5.4198 0.53542 6.979 0.18781 5.4197s0.7769 1.0313 0.93021 3.2213c0.27289 3.8981 2.0574 4.7637 2.0574 4.7637s1.96-2.0499 3.0534-4.9453 1.3204-6.6362 1.3204-6.6362l1.8698-5.3443 0.26631-6.4341 0.1598-3.8605-3.0332-1.4-7.5353 2.8168z" fill="#b1b2b4" fill-rule="evenodd" stroke="#000" stroke-width=".78756"/>
  <path d="m204.64 335.09-2.0317 4.5077-2.8719 5.6558-2.0317 4.5077s-1.9269 2.6261-2.8719 5.6558c-0.91168 2.9229-1.8407-1.5246-1.8407-1.5246l-0.64918-4.8842 0.19101-6.0323 0.21391-5.4864 1.9859-5.5994 1.1916-3.3596 3.1239 0.34824 5.5909 6.2112z" fill="#b1b2b4" fill-rule="evenodd" stroke="#000" stroke-width=".75304"/>
  <path d="m204.78 335.32-1.7332 4.6931-1.9828 6.2081-1.7332 4.6931s-0.56777 3.4704-1.9828 6.2081c-1.3651 2.6412 2.0894 0.91682 2.0894 0.91682l3.5731-2.2613 3.8226-3.7763 3.4528-3.4744 2.4728-5.2969 1.4837-3.1781-2.0849-2.8874-7.3776-1.8448z" fill="#b1b2b4" fill-rule="evenodd" stroke="#000" stroke-width=".75304"/>
  <path d="m235.85 346.88c-0.05463 1.7488-0.02409 3.5016-0.13148 5.2478l-1.7325 4.8265c0.60092 2.3382 1.2616 4.653 1.8255 7.0056 0.45699 1.8962 1.7874 2.3791 1.8384 4.5681 1.1912 1.4084 0.23974 4.8095 1.8881 6.2241 0.93152-2.4567 2.9766-4.5485 2.6392-7.8416-0.20882-6.3326 1.5785-7.2031 2.9559-10.65 0.30915-3.2025 0.61832-6.405 0.9275-9.6075-1.2446-0.60526-2.478-1.92-3.8984-1.3771l-6.3122 1.6038z" fill="#b1b2b4" fill-rule="evenodd" stroke="#000" stroke-width=".75304"/>
  <path d="m282.15 342.1c0.04746 2.0406 0.15877 4.0348 0.16669 6.1039l-1.0509 6.5775c0.56707 2.3253 1.1776 4.588 1.7177 6.952 0.43721 1.9039 1.4557 1.6628 1.6043 4.1456 0.96117 0.90477 0.42194 5.3788 1.7251 6.0172 0.57202-3.3777 1.9946-7.0022 1.5762-10.582-0.47573-7.146 0.81585-9.2141 1.6711-13.995l0.20802-11.586c-0.96055 0.04928-1.9486-0.72275-2.9825 0.74989l-4.6356 5.6157z" fill="#b1b2b4" fill-rule="evenodd" stroke="#000" stroke-width=".70967"/>
  <path d="m267.71 347.23c0.60378 1.5841 1.1304 3.2128 1.7819 4.7692l3.1228 3.6121c0.18664 2.4418 0.31084 4.8908 0.53619 7.3281 0.1793 1.9657-0.89294 3.0495-0.2471 5.0897-0.65117 1.8692 1.3014 4.544 0.23113 6.6385-1.6353-1.8147-4.1805-2.7583-4.912-5.9529-1.8119-5.9316-3.7332-5.8745-6.0923-8.3864l-3.8947-8.4014c0.95452-1.1553 1.6742-2.9585 3.154-3.1411l6.32-1.5558z" fill="#b1b2b4" fill-rule="evenodd" stroke="#000" stroke-width=".75304"/>
  <path d="m269.37 349.18 1.9061 4.89 2.7243 6.1542 1.9061 4.89s1.0439 0.57057 1.8852 2.5089c1.4976 3.4501 3.4146 3.3792 3.4146 3.3792s1.1457-2.8357 1.2246-6.0277-0.90899-6.7402-0.90899-6.7402l0.00914-5.8197-1.8132-6.0427-1.0879-3.6256-3.2355 0.18609-6.0245 6.2476z" fill="#b1b2b4" fill-rule="evenodd" stroke="#000" stroke-width=".78756"/>
  <path d="m253.25 349.87-0.42554 5.1294-0.83051 6.5926-0.42555 5.1294s-0.93103 3.3492-0.83051 6.5926c0.09698 3.129-2.1794-0.50742-2.1794-0.50742l-2.1588-4.1737-1.7538-5.6368-1.5582-5.1463 0.03427-6.1105 0.02057-3.6663 2.9825-1.1968 7.1251 2.9938z" fill="#b1b2b4" fill-rule="evenodd" stroke="#000" stroke-width=".75304"/>
  <path d="m253.46 350.02-0.09189 5.1549 0.16331 6.6685-0.0919 5.1549s0.58818 3.4653 0.16332 6.6685c-0.40989 3.0903 2.2136-0.1719 2.2136-0.1719l2.5607-3.8132 2.3054-5.3268 2.0622-4.8698 0.5785-6.0689 0.3471-3.6413-2.8397-1.6415-7.3706 1.8867z" fill="#b1b2b4" fill-rule="evenodd" stroke="#000" stroke-width=".75304"/>
  <path d="m293.26 351.17c0.68093 1.5359 1.4366 3.0214 2.0712 4.5884l0.52137 5.2382c1.489 1.6277 3.0196 3.1976 4.4828 4.8611 1.1815 1.3392 2.5246 0.9132 3.4794 2.7603 1.6088 0.45652 2.2075 3.9776 4.2114 4.1505-0.22273-2.6977 0.66244-5.7856-0.99783-8.3996-2.8148-5.3047-1.6426-7.1812-1.8945-11.01l-3.2022-8.8342c-1.3204 0.26672-2.9265-0.08274-3.92 1.2808l-4.7516 5.3649z" fill="#b1b2b4" fill-rule="evenodd" stroke="#000" stroke-width=".75304"/>
  <path d="m287.85 354.15 0.29826 5.143 0.66679 6.6207 0.29826 5.143s0.84762 3.3827 0.66679 6.6207c-0.17445 3.1239 2.1909-0.42521 2.1909-0.42521l2.2612-4.0906 1.8927-5.5682 1.685-5.0853 0.11714-6.1089 0.07028-3.6654-2.9514-1.3084-7.1959 2.7245z" fill="#b1b2b4" fill-rule="evenodd" stroke="#000" stroke-width=".75304"/>
  <path d="m310.79 345.58 1.7332 4.6931 1.9828 6.2081 1.7332 4.6931s0.56777 3.4704 1.9828 6.2081c1.3651 2.6412-2.0894 0.91681-2.0894 0.91681l-3.5731-2.2613-3.8226-3.7763-3.4528-3.4744-2.4728-5.2969-1.4837-3.1781 2.0849-2.8874 7.3776-1.8448z" fill="#b1b2b4" fill-rule="evenodd" stroke="#000" stroke-width=".75304"/>
  <path d="m317.32 351.78 3.3249 3.1311 4.4675 3.7696 3.3249 3.1311s2.6183 1.458 4.4675 3.7696c1.784 2.2301 1.1926-2.3041 1.1926-2.3041l-0.98966-4.7967-2.1323-5.4352-1.9762-4.9236-3.6371-4.1543-2.1822-2.4926-2.7504 1.8579-3.1094 8.4471z" fill="#b1b2b4" fill-rule="evenodd" stroke="#000" stroke-width=".75304"/>
  <path d="m318.79 343.26 1.7332 4.6931 1.9828 6.2081 1.7332 4.6931s0.56777 3.4704 1.9828 6.2081c1.3651 2.6412-2.0894 0.91681-2.0894 0.91681l-3.5731-2.2613-3.8226-3.7763-3.4528-3.4744-2.4728-5.2969-1.4837-3.1781 2.0849-2.8874 7.3776-1.8448z" fill="#b1b2b4" fill-rule="evenodd" stroke="#000" stroke-width=".75304"/>
  <path d="m153.34 299.89c5.6806 13.375 14.421 24.915 25.825 30.894 14.522 9.1847 30.509 14.137 46.464 17.811 8.6481 2.4257 17.468 3.4921 26.31 4.4157 11.538 1.9928 23.097 3.7766 34.715 4.6224 13.452 1.0194 26.564-4.2452 40.029-2.9074 8.9528-0.33202 18.173 0.2961 26.58-4.2937 5.068-4.234 19.027 0.83385 16.99-10.265-6.8189-8.0682-15.631-15.18-25.548-13.142-6.0148 1.1496-13.913 2.6673-18.898 0.71955 6.7269-4.9784 15.218-8.3167 18.689-17.811 3.1846-7.441 5.7703-17.999 3.2703-25.642-5.7933 8.2105-11.779 18.258-21.672 18.279-8.0991-1.9317-15.911-5.8744-23.942-8.2704-7.3682-5.2738-16.031-2.8268-24.113-2.7239-12.602 1.8887-25.312 0.2785-37.917 1.6491-9.0339 0.50592-18.219 0.40509-27.264 1.8668-14.804 1.896-29.77 0.23997-44.454 3.6822-4.9312 0.97619-10.439 0.03433-15.065 1.1158z" fill="#74d248" fill-rule="evenodd" stroke="#000" stroke-width=".75304"/>
  <path d="m161.81 274.44c-0.5768 1.8014-1.2422 2.3916-2.0499 3.2606-1.0494 1.129-0.4251 1.5033-1.6798 1.0038-0.54099-0.2154-0.56617-1.6669-0.32133-2.6005 0.20109-0.7667 1.3371-2.1756 1.5426-2.731 0.58211-1.5732 1.6047-0.20818 2.5085 1.0671z" fill="#5e5b18" fill-rule="evenodd" stroke="#000" stroke-width=".75304"/>
  <path d="m163.97 270.14c0.36141-1.2762-1.0716 2.3705-1.742 3.4404-0.81042 1.2934-1.2062-0.0354-2.3558-0.20194-1.5825-0.22925-0.60352-1.3793-0.49558-2.5104 0.06785-0.71096 1.2087-1.9289 1.601-2.555 0.78043-1.2455 1.2972-0.04044 1.926 0.5577 0.39121 0.37214 0.71094 0.84619 1.0664 1.2693z" fill="#5e5b18" fill-rule="evenodd" stroke="#000" stroke-width=".75304"/>
  <path d="m158.94 279.92c0.75584-0.8132-0.58698 2.5064-1.3428 3.3196-0.94129 1.0127 0.1829 2.5454-1.4957 1.877-1.2906-0.51386-1.1932-0.73904-0.80685-2.212 0.27907-1.064 0.90586-2.0255 1.3194-2.8926 0.9744-2.0433 0.68287-1.5009 2.326-0.09198z" fill="#5e5b18" fill-rule="evenodd" stroke="#000" stroke-width=".75304"/>
  <path d="m155.57 286.62c0.59361-0.88633-0.90912 2.1288-1.6998 2.7384-1.015 0.78257-1.1623 1.5146-1.9092 0.044-0.8797-1.7322-0.15047-1.8527 1.1965-2.5883 0.76891-0.41993 1.2134-1.6494 1.8215-2.1183 0.47185-0.36378 0.46006 1.2577 0.59094 1.9243z" fill="#5e5b18" fill-rule="evenodd" stroke="#000" stroke-width=".75304"/>
  <path d="m154.21 291.21c0.79469-0.97915-0.92625 2.6096-0.92625 3.9943 0 2.0779-1.6452 0.22542-1.8525-0.28531-0.49558-1.2212-1.6077-0.35065-1.1578-2.5678 0.24309-1.198 1.2239-1.5893 1.621-2.5678 0.38593-0.95104 1.7765 0.59626 2.3156 1.4266z" fill="#5e5b18" fill-rule="evenodd" stroke="#000" stroke-width=".75304"/>
  <path d="m221.25113,179.2021c1.02965-.02233-1.30826,4.4996-1.98296,4.19883-.5335-.23784-2.38383.21143-2.74494.07179-1.40641-.54393-.49055-.84963-1.13699-2.12564-.3127-.61725.82324-2.28301 1.4302-3.05766 .10687-.13639 2.28976.55565 2.46436.55188 .66388-.01441 1.30921.28478 1.97033.3608z" fill="#5e5b18" fill-rule="evenodd" stroke="#000" stroke-width=".75304"/>
  <path d="m226.97267,178.48649c.98255.37999-.87577,2.35007-1.59103,3.26292-.89261,1.13922-.96136.95939-2.1081,1.45816-.29016.1262-2.85609-.0171-3.21137-.1545-.88893-.34379-.08105-.21143.68153-2.31789 .68415-1.8898 1.15677-2.2522 2.13661-2.12531 .55141.07141 1.95536.32652 2.46098.31556 .77744-.01686.22201.02781 1.63138-.43894z" fill="#5e5b18" fill-rule="evenodd" stroke="#000" stroke-width=".75304"/>
  <path d="m232.38 178.97c0.88985 0.34414-0.95258 2.0998-0.93617 3.2487 0.02082 1.4575-1.0102 1.8379-1.7749 1.8545-1.057 0.02292-1.5822 0.1001-2.6252-0.34661-1.1378-0.48731-1.1827 0.17729-2.3876-0.50458-0.29754-0.16838 2.0665-3.1841 2.2481-3.5279 0.62117-1.176 1.6033-0.15972 2.4471-0.6584 1.1722-0.6928 1.1005-0.47633 3.0287-0.0657z" fill="#5e5b18" fill-rule="evenodd" stroke="#000" stroke-width=".75304"/>
  <path d="m216 178.51c1.105-0.02397-1.5662-0.67627-2.6712-0.69872-1.4598-0.02966-2.7089-0.20221-3.2613 0.97872-0.43605 0.93225 0.66529 1.6975 0.73397 2.6576 0.15502 2.1673 0.55954 2.3276 1.9292 2.2266 1.8859-0.13901 1.759-0.27777 3.0459-0.28569 0.38746-0.00238-0.35083-1.8267-0.47695-2.3529" fill="#5e5b18" fill-rule="evenodd" stroke="#000" stroke-width=".75304"/>
  <path d="m259.24 172.3c0.66808 1.438 0.88285 2.6355 1.7972 2.8836 1.5842 0.42982-1.402 2.9742-1.7954 3.0061-0.34819 0.02821-2.1235 1.4175-2.3138 1.7305-0.89025 1.4642-1.8072-0.34129-1.9681-1.0194-0.30189-1.2727-0.38334-1.9094-0.45711-3.2916-0.05776-1.0821 1.5573-1.3584 2.1119-1.5581 0.59934-0.21582 1.8264-1.2191 2.6252-1.751z" fill="#5e5b18" fill-rule="evenodd" stroke="#000" stroke-width=".75304"/>
  <path d="m254.00865,177.38907c.8387-.73628.87976,4.98339.18533,5.2058-.54911.17586-1.86838,1.83632-2.23025,1.97294-1.40939.53207-.79467-.3585-1.91367-.9599-.5413-.29092-.86958-.91662-.22504-3.51817 .04492-.18133 1.81896-1.72784 1.96118-1.85268 .54077-.47473 1.34916-1.2295 2.22245-.84799z" fill="#5e5b18" fill-rule="evenodd" stroke="#000" stroke-width=".75304"/>
  <path d="m249.58 180.2c1.1047-0.04028-0.93976-0.51996-2.0449-0.5261-1.46-0.0081-2.51 0.16111-3.8844 0.89368-0.80149 0.42721 0.68176 1.6875 0.75977 2.6466 0.17609 2.1649 0.58215 2.3192 1.9507 2.198 1.8844-0.16685 1.7561-0.30372 3.0429-0.33064 0.38741-0.0081-0.36856-1.8214-0.4998-2.3457" fill="#5e5b18" fill-rule="evenodd" stroke="#000" stroke-width=".75304"/>
  <path d="m237.91108,181.33537c-.32998,1.60628-.8505,2.65161-.33252,3.61256 .89745,1.66494-2.68519.94003-2.98622.62628-.26641-.27767-2.32677-.79737-2.6401-.73505-1.46586.29155-1.1078-1.79207-.84125-2.41761 .50025-1.17398.80058-1.70178 1.52666-2.75932 .5684-.82791 1.88609.35539 2.39769.68632 .55285.35762 2.00123.68587 2.87574.98682z" fill="#5e5b18" fill-rule="evenodd" stroke="#000" stroke-width=".75304"/>
  <path d="m243.20519,180.91172c.95442-.52102-3.46871.11034-4.5331.44261-1.32592.41392-.79261,1.19359-.76923,1.86634 .0353,1.01606-.27418,1.57072.68943,1.26991 .81186-.25345 3.1455-.08791 3.85508-.10579 1.3721-.03459 1.90752-.26206 1.45269-1.5648-.30185-.8646-.09937-.81537-.69487-1.90827z" fill="#5e5b18" fill-rule="evenodd" stroke="#000" stroke-width=".63757"/>
  <path d="m265.5182,171.12978c1.10499-.02397-1.56615-.67627-2.67116-.69872-1.45985-.02966-2.70894-.20221-3.26131.97873-.43605.93224.66529,1.69746.73397,2.65761 .15503,2.16731.55955,2.3276 1.92916,2.22665 1.88591-.13901 1.75896-.27777 3.04587-.28568 .38746-.00239-.35082-1.82671-.47695-2.35292" fill="#5e5b18" fill-rule="evenodd" stroke="#000" stroke-width=".75304"/>
  <path d="m270.31 166.09c0.98616 0.36545-0.85286 2.3628-1.5592 3.2862-0.88147 1.1523-0.95196 0.97351-2.0938 1.4892-0.28891 0.13048-2.9178 1.9269-3.2126-0.10708-0.16382-1.13-1.1142-1.5882 0.65895-2.3278 0.54223-0.22615 1.1348-2.2691 2.1158-2.1567 0.55207 0.06327 3.3785-1.452 3.884-1.4705 0.77722-0.02835-0.20994 0.86133 0.20692 1.2867z" fill="#5e5b18" fill-rule="evenodd" stroke="#000" stroke-width=".75304"/>
  <path d="m152 289.85c10.883-11.768 9.6564-31.726 17.748-45.651 8.3103-24.498 19.972-50.152 40.494-61.562 14.123-6.734 30.047 7.0338 43.486-3.5687 14.502-10.242 27.474-23.971 43.481-30.746 16.369-8.9405 34.194-18.683 52.445-15.437 10.826 5.7908 14.459 23.69 9.3855 36.168-5.1356 31.164-10.181 63.323-5.8481 95.121 0.38029 20.819-12.835 43.893-31.011 42.843-14.396-2.0587-26.257-15.998-41.248-14.503-25.186-1.6058-50.204 4.4674-75.392 3.3551-16.74 0.71459-33.575 0.13278-50.218-1.6401-1.6613-0.53306-3.1191-2.2004-3.3214-4.3778z" fill="#7ad24c" fill-rule="evenodd" stroke="#000" stroke-width=".75304"/>
  <path d="m159.58 281.82c-3.269 2.2604-5.377 5.2342-7.8262 8.7756 2.1909 1.7102 4.2715 3.9428 7.0333 2.9487 10.729-0.7651 21.453 0.64609 32.18-0.31587 7.6806-0.83157 15.771 1.5343 23.222-1.4004 9.3253-1.7764 18.581-0.19297 27.961-0.14514 11.03 1.4967 21.904-2.7704 32.959-1.9569 6.0599 0.35477 12.242 1.1019 18.164 2.3692 9.3379 4.5442 19.055 7.6714 28.551 11.64 7.9578 2.2111 17.538-0.1947 22.036-9.3236 4.4115-7.7872 8.1435-15.686 8.4894-26.791 0.23769-9.5149-1.0786-16.821-1.2124-25.834-0.22398-9.3503 2.0317-28.295 1.7178-37.992-2.1233-2.0128-9.76 2.3298-10.983 7.9664-4.115 3.4028-19.253-7.8938-24.839-10.793-9.0055-2.7398-5.6314 9.8176-14.485 6.5357-0.4402 17.728 5.635 36.728-1.5643 53.46-3.0236 7.9779-6.3843 16.681-13.816 19.336-7.6418 4.0638-17.211 3.0184-25.516 3.0386-45.769-14.033-33.901 3.3922-51.212 0.01089-9.4386-1.4211-17.785 4.1387-27.211 0.98612-5.8244-4.8393-6.551-1.9608-12.729-5.6546-1.0748-0.41108-10.064-0.54888-10.919 3.1392z" fill="url(#n)" fill-rule="evenodd"/>
  <path d="m172.12 278.71c2.3496-5.4603 5.8541-9.8747 8.9627-14.634 3.0479-6.8647 5.6455-14.087 8.8512-20.808 3.7676-6.1622 9.3903-9.9626 13.856-15.159 2.0586-3.3368 4.2627-7.0244 7.6955-8.1724 0.9095-3.1214 2.1576-6.6176 5.1829-7.074 4.2744-0.99308 5.0178-7.5085 8.9424-9.1886 2.5978-2.5501 5.0664-5.3871 8.1047-7.1328 0.86464-2.9265 3.3182-4.7371 5.7891-4.8503 1.9085-1.37 2.5124-4.6054 4.9701-4.7187 2.492-0.04824 4.6326-2.5057 6.9131-2.7968 1.6611 0.62618 2.7379-3.3258 4.7657-3.1913 3.5931-0.54585 6.984-3.1285 10.676-1.8469 2.5155-0.3458 5.0869-0.89834 7.4968 0.24073 2.6699-2.4826 4.7805 1.3494 7.2978 1.1858 2.2638-0.55763 3.9789 0.5948 5.8718 1.7728 4.6395 0.24456 9.1633 2.5969 12.91 5.9305 3.4251 1.5827 6.9616 2.7167 9.9572 5.4209 3.463 1.4406 6.5148 4.6879 7.0461 9.3338 0.8183 2.5637-0.76032 5.2011-1.4982 7.5112-3.6778 4.5317-5.566 10.957-6.7058 17.107-1.0433 8.3642-2.5098 16.625-3.4617 25.007-0.54242 3.6475-1.9171 7.0815-3.2607 10.386-1.958 3.8935-4.2249 7.5119-6.7132 10.891-2.9758 3.8077-5.6269 8.6386-10.15 9.6459-4.5661 2.602-9.6472-0.51794-14.318 0.90432-6.8397-1.176-13.989 0.22701-20.528-3.0535-6.2837-3.2731-13.192-2.0308-19.836-2.7101-6.3364-1.3569-10.618 5.1962-16.536 4.4452-3.9391-0.13219-7.7527 2.0106-11.742 2.0062-6.104 0.96836-12.216-0.94889-18.324-1.026-3.5672-1.4319-7.2848-2.7758-10.853-3.9869l-1.362-1.4384z" fill="#7f8f83" fill-rule="evenodd" stroke="#000" stroke-width=".75304"/>
  <path transform="matrix(.7177 -.22381 .22411 1.2459 -111.94 -54.51)" d="m486.73 308.9a60.927 34.474 0 1 1 -121.85 0 60.927 34.474 0 1 1 121.85 0z" fill="#a4ad6a"/>
  <path transform="matrix(.71072 0 0 .91187 -48.978 -35.814)" d="m489.34 298.27a51.787 44.565 0 1 1 -103.57 0 51.787 44.565 0 1 1 103.57 0z"/>
  <path transform="matrix(.7038 0 0 .90526 -46.546 -34.432)" d="m489.34 298.27a51.787 44.565 0 1 1 -103.57 0 51.787 44.565 0 1 1 103.57 0z" fill="#37412f"/>
  <path transform="matrix(.67842 0 0 .87883 -35.32 -26.843)" d="m489.34 298.27a51.787 44.565 0 1 1 -103.57 0 51.787 44.565 0 1 1 103.57 0z" fill="#5b8d2c"/>
  <path transform="matrix(.7002 0 0 .92387 -41.009 -34.549)" d="m469.61 291.75a38.4 33.468 0 1 1 -76.8 0 38.4 33.468 0 1 1 76.8 0z" fill="#406026"/>
  <path transform="matrix(.7002 0 0 .92387 -41.009 -34.549)" d="m469.61 291.75a38.4 33.468 0 1 1 -76.8 0 38.4 33.468 0 1 1 76.8 0z" fill="#95cb5d"/>
  <path transform="matrix(.7087 0 0 .87768 -44.633 -14.771)" d="m449.53 285.41a19.728 17.615 0 1 1 -39.457 0 19.728 17.615 0 1 1 39.457 0z" fill="#7d8a54"/>
  <g transform="matrix(.67842 0 0 .83588 8.6559 -12.707)">
   <path transform="matrix(1.0495 0 0 1.3165 -76.409 -90.056)" d="m443.54 294.04a17.791 13.916 0 1 1 -35.582 0 17.791 13.916 0 1 1 35.582 0z" fill="#dafcbf"/>
   <path transform="matrix(.91936 0 0 .96226 -22.097 25.008)" d="m442 282.34a15.5 13.25 0 1 1 -31 0 15.5 13.25 0 1 1 31 0z" fill="#3e302f"/>
   <path transform="matrix(.67985 0 0 .77548 80.581 77.745)" d="m442 282.34a15.5 13.25 0 1 1 -31 0 15.5 13.25 0 1 1 31 0z" fill="#d3d6b9"/>
   <path transform="matrix(.63423 0 0 .72211 100.04 92.813)" d="m442 282.34a15.5 13.25 0 1 1 -31 0 15.5 13.25 0 1 1 31 0z" fill="#010101"/>
   <path d="m365.06145,291.89515c-.3261.11498-.96189.76118-1.29337,1.05374l-.99488.87811c-.33339.29425-.41778,1.19358-.49746,1.75623-.11447.80827-.5675.89111.19898,1.22935 .62854.27737.75592-.45627.99489-.87812 .31586-.55754.34753-.8336.79593-1.22935l.9949-.87811c.3385-.29878.95014-.19977 1.29337-.35125 .40365-.17815.86976-.17561 1.39285-.17561 .40741,0 .96365-.32368 1.19389-.52689 .36442-.32164.66216-.642.89539-1.05372 .43825-.77361-.57997-1.3536-.69643-1.40497-.43699-.19284-.85691-.17563-1.39285-.17563-.3675,0-.83669.36924-1.19389.52688-.42806.1889-.82189.37416-1.19388.70248-.17294.15266-.33161.35124-.49744.52686z" fill="#c5d5d4" fill-rule="evenodd" stroke="#000" stroke-width=".7"/>
   <path d="m375.94505,291.92375c.25115.1003.74081.66421.99607.91948l.7662.76627c.25676.25673.32174,1.04153.38311,1.5325 .08818.70531.43705.77756-.15323,1.0727-.48405.24208-.58217-.39811-.76621-.76625-.24324-.48646-.26763-.7274-.61297-1.0727l-.76623-.76625c-.26069-.26073-.73172-.17437-.99607-.30652-.31087-.15544-.66983-.15322-1.07269-.15322-.31375,0-.74212-.28248-.91945-.4598-.28063-.28062-.50996-.56021-.68957-.91948-.33753-.67506.44664-1.18115.53634-1.22596 .33655-.16831.65995-.15326 1.07268-.15326 .28304,0 .64438.32217.91945.45976 .32968.16483.63299.32651.91947.61297 .13317.1332.25539.30649.3831.45976z" fill="#c5d5d4" fill-rule="evenodd" stroke="#000" stroke-width="1.5"/>
  </g>
  <path d="m315.23 203.1-2.3156 0.85592-3.4734 1.1412-4.3997-0.28531-3.4734-0.85594-3.705-1.4265-5.5575-3.9943-5.0944-3.4237s-4.3997-2.2825-5.3259-2.2825-6.2522-1.4266-6.2522-1.4266-6.0206-0.85593-6.9469-0.85593h-5.7891l-5.5575 1.4266-4.1681 0.85593-3.2419 1.1412-4.3997 1.7119-2.7788 1.9972-3.0103 2.5678-2.5472 2.2825-4.1681 3.709-2.0841 2.8531-2.7788 2.8531-1.3894 2.2825-2.3156 3.709-1.8525 1.1412-1.6209 1.4266-0.46313 0.57062-1.8525 2.8531-2.3156 4.8503-0.92625 3.9943-0.23157 1.7118 0.46313 5.1356 0.69469 4.8503 0.92625 3.4237 0.46313 5.1356 2.5472 6.5621 2.5472 4.8503 1.6209 3.1384 1.6209 1.7119 3.0103 3.4237 0.92625 2.7033-0.87248 2.4842-3.1179 0.73775-3.6231 1.7954-2.8068 1.6946-6.7153 1.1412-7.41 1.4266-7.6416 0.60524-7.41-0.60524-6.4838 0.22513-5.7891-3.3635-3.9366-1.4266-1.8525-1.4266 3.0103-5.4209 5.0944-7.9887 3.4734-9.1299 5.3259-11.698 3.0103-4.8503 5.7891-4.8503 4.1681-4.8503 3.4734-3.9943 2.7788-4.2796 2.3156-1.7118c0.54015-0.85485 0.86218-0.36604 1.621-2.5678l2.0841-3.709 3.4734-1.7119 3.0103-2.8531 3.4734-4.565 6.0206-5.1356 2.3156-1.7119 2.0841-3.4237 2.5472-1.9972 2.142-1.5692 3.4156-3.0671 2.2577-0.07132 5.3838-3.2811h1.3894l3.2419-2.8531 4.1681-1.7119 5.3259-1.1412 3.705 0.28531 3.0103-0.28531 2.3156 0.28531h3.705l1.6209 0.85593 1.6209 0.57062 3.2419-0.28531 1.6209 0.57062 2.7788 1.7119h1.8525l3.2419 1.1412 3.0103 1.4266 3.705 1.9972 4.3997 2.8531 3.4734 1.9972 3.0103 1.7119 2.3156 1.9972 1.6209 1.9972 0.92625 1.9972-0.69468 3.709z" fill="#5e5b18" fill-rule="evenodd" stroke="#000" stroke-width=".75304"/>
  <path d="m270.33 164.73c2.933-3.1809 6.1532-5.9116 9.8409-7.5731 6.5534-3.4373 12.815-7.6015 18.908-12.128 7.9652-5.7523 16.878-8.9184 25.737-11.807 6.2936-2.8727 12.975-4.5955 19.661-5.2077 4.4072-0.37234 8.7169 1.2205 12.381 4.1903 3.874 2.9088 8.4535 6.6992 8.444 12.952 0.19951 6.1122-2.2698 11.796-2.7691 17.834-0.50735 5.9541-1.3845 11.816-2.6159 17.608-0.92924 4.9416-0.81799 10.047-2.0906 14.906-0.44534 4.4899-2.9347 7.645-6.4806 8.4653-1.7212 1.4979-7.6058 3.9263-3.7191-0.41752 2.399-4.1747 5.4775-8.0745 6.0093-13.386 1.8486-9.5575 4.627-19.059 4.6561-28.979-0.8541-3.5552-2.7936-6.7399-0.0288-9.9929 2.604-4.4932 0.56857-10.031-2.4197-13.356-3.07-3.9668-7.8531-1.8052-11.78-2.3218-6.7728 0.37706-12.521 5.4709-18.693 8.3582-4.9671 2.4278-9.0964 6.8628-14.231 8.8536-4.5467 3.425-7.9681 9.3453-13.491 10.61-5.0862 2.9567-10.751 4.829-16.408 4.164-3.6333-0.93038-7.8216 0.40454-10.912-2.7713z" fill="#d2c06c" fill-rule="evenodd" stroke="#000" stroke-width=".75305"/>
  <path d="m215.42 221.54c-6.2488 7.3086-13.016 13.963-18.918 21.708-2.5777 3.521-5.5817 6.5514-7.79 10.474-2.51 3.9009-4.6207 8.1955-6.1038 12.831-1.3682 2.9556-3.7794 5.4603-3.537 9.1762-0.66651 2.6838 0.79885 4.9626 3.0182 4.1648 3.0377 0.35205 6.0248 1.4914 9.1003 1.1709 4.8672 0.18518 9.6286-1.5649 14.497-1.4071 3.5702-0.40641 6.8082-2.5757 10.307-3.3189 2.555 0.17441 6.1097 1.832 7.605-1.7983-0.50518-3.2462-3.6-4.9249-4.8306-7.8862-2.6273-4.2669-5.2298-8.712-6.853-13.701-1.2296-3.191-1.2725-6.6737-0.72063-10.067 0.32553-4.4153 1.056-8.8484 2.7584-12.787 0.74832-2.779 0.91929-5.7225 1.4675-8.5597z" fill="#577b4a" fill-rule="evenodd"/>
  <path transform="matrix(.66272 -.17879 .14511 .81654 84.571 220.32)" d="m154.45 93.421a9.9644 3.9858 0 1 1 -19.929 0 9.9644 3.9858 0 1 1 19.929 0z" fill="#8b9795" stroke="#000" stroke-linecap="round" stroke-width=".7"/>
  <path d="m219.14 211.02c1.9342 1.2054 2.3156 3.6212 2.3156 7.418 0 2.2621-2.3595 5.3941-3.705 4.565-1.8328-1.1295-3.1125-1.9055-4.6312-2.8531-2.1399-1.3351 0.52762-4.7117 1.7946-6.1342 1.2384-1.3904 2.3725-1.1687 4.226-2.9958z" fill="none" stroke="#000" stroke-width=".75304"/>
  <path d="m219.37 211.66c4.1025 1.685 1.4768 7.5844 2.8366 7.2041 1.6342-0.45708 3.1814-4.1338 4.3418-5.5635 1.3951-1.7189 1.6898-2.585 1.3894-5.7062-0.32083-3.333-3.1579-3.4398-4.6312-1.1412-0.9241 1.4417-3.224 3.601-3.9366 5.2069z" fill="none" stroke="#000" stroke-width=".75304"/>
  <path d="m227.94 201.89c-2.7366 1.6859-4.0975 1.4701-0.92625 3.4237 2.535 1.5617-0.56898 8.8772 3.0103 4.4223 0.43656-0.54345 3.1096-4.584 3.8787-4.9216 5.3566-2.3512-2.578-3.1963-3.5313-4.6363-0.41164-0.62177-1.6595 1.3314-2.4314 1.7118z" fill="none" stroke="#000" stroke-width=".75304"/>
  <path d="m231.18 199.61c-1.8653 0 3.2848 3.4105 5.0944 2.8531 1.7076-0.52599 2.8351-2.7969 4.4576-3.6377 5.6681-2.9374 0.61226-3.2248-1.2157-4.351-2.4325-1.4986-2.8363-1.9974-4.3997 0.35663-1.3556 2.0411-2.7531 1.8627-3.9366 4.7789z" fill="none" stroke="#000" stroke-width=".75304"/>
  <path d="m240.44 189.91c-2.5697 1.5831-4.6089 3.4306-0.92625 4.565 2.3423 0.72151 2.6772 2.0284 5.5575 1.1412 2.0396-0.62826 5.9184-1.2394 4.3997-4.137-0.81046-1.5463-4.0102-4.299-5.4996-3.923-0.37618 0.09498-3.0821 2.2154-3.5313 2.3538z" fill="none" stroke="#000" stroke-width=".75304"/>
  <path d="m245.77 187.56c-1.4686-1.8094 3.1235 2.8468 4.0524 5.1356 0.51153 1.2605 3.5956 0.26538 4.9786 0.07133 3.0501-0.42797-1.1986-4.9652-1.3315-5.7062-0.56787-3.1664-2.3825-3.3648-4.6312-1.7119-1.9352 1.4224-0.582 0.92727-3.0682 2.2112z" fill="none" stroke="#000" stroke-width=".75304"/>
  <path d="m252.95 184.2c-2.0806 0.64088 1.7254 4.979 3.2419 6.8474 1.8171 2.2388 4.6076-0.90167 5.4417-0.92726 2.9243-0.08968 5.7647 1.986 4.747-2.4965-0.00754-0.03319-2.6068-4.7119-2.7788-5.1356-0.76421-1.8832-1.9032-2.4965-3.705-2.4965-1.4664 0-5.8808 3.1574-6.9469 4.2083z" fill="none" stroke="#000" stroke-width=".75304"/>
  <path d="m261.51 179.64c0.54764 0.77554 1.707 2.1032 2.3156 2.8531 0.70749 0.8717 1.0246 1.5477 1.6209 2.2825 0.436 0.5372 0.66461 2.4937 0.92625 3.1384 0.66231 1.6321-0.08555 1.4808 1.2157 2.2825 0.72981 0.44959 2.5781 0.57061 3.4156 0.57061 1.2366 0 3.0541-0.07132 3.7629-0.07132 1.1475 0-2.142-2.7945-2.142-4.2083 0-1.6685-0.04629-2.6819-0.46313-3.709-0.39033-0.96187-1.1161-1.6604-1.6209-2.2825-0.44684-0.55055-0.7967-1.1548-1.4473-1.3552-0.97781-0.3012-2.4701-0.21399-3.6471-0.21399-1.1223 0-2.6356 0.07213-3.9366 0.71327z" fill="none" stroke="#000" stroke-width=".75304"/>
  <path d="m270.31 178.78c-1.1132 0 1.1846 2.3264 1.8525 3.4237 0.61263 1.0064 0.69469 1.9563 0.69469 3.4237 0 1.6827 0.50109 2.0439 1.1578 2.8531 0.90149 1.1107 0.48279 1.5813 1.6209 2.2825 0.99956 0.61578 1.7042 0.85593 3.0103 0.85593 1.6104 0 2.6309 0.84003 2.7209 0.7846 0.21433-0.13204-0.6368-4.4797-0.6368-5.0642 0-1.1624-0.29716-3.1764-0.46313-3.9943-0.32868-1.6199-0.39716-1.9159-1.1578-2.8531-0.70749-0.8717-1.4877-0.97711-2.0841-1.7119-0.34604-0.42636-2.9232 0-3.4734 0-1.2763 0-2.1818-0.32654-3.2419 0z" fill="none" stroke="#000" stroke-width=".75304"/>
  <path d="m280.73 179.92c-1.2786 0-1.3129 0.37703-0.69469 3.4237 0.24723 1.2185 0.46313 2.3526 0.46313 3.9943 0 1.6593 0.69468 1.7666 0.69468 3.4237 0 1.2538 1.1657 1.7856 1.8525 1.9972 1.2631 0.38907 1.5911 0.7754 2.7788 1.1412 1.0501 0.32347 1.7894 0.95972 2.5472 1.4266 0.61093 0.37637 0.46313-3.2181 0.46313-3.709v-4.2796c0-1.4022-0.03147-3.0082-0.23157-3.9943-0.13176-0.64937-1.4301-1.762-1.8525-2.2825-0.62174-0.76607-1.8938-0.85593-3.0103-0.85593-1.0598 0-1.9547-0.02518-3.0103-0.2853z" fill="none" stroke="#000" stroke-width=".75304"/>
  <path d="m289.07 182.49c-1.2446 0 0.46312 3.0315 0.46312 4.565 0 1.2888-0.69468 2.2872-0.69468 3.709v4.2796c0 0.98467 1.4871 1.5469 1.8525 1.9972 0.6854 0.8445 1.7167 1.1707 2.5472 1.4266 1.1362 0.34999 1.3894 2.0112 1.3894-0.28531 0-1.4043 0.75945-2.1568 1.1578-3.1384 0.57798-1.4243 0.47147-2.812 0.23157-3.9943-0.24803-1.2224-0.69469-2.0376-0.69469-3.4237 0-1.7663-0.01258-2.5833-0.69469-3.4237-0.43609-0.53731-1.7922-1.1041-2.3156-1.4266-1.0226-0.62996-2.0157-0.66302-3.2419-0.28531z" fill="none" stroke="#000" stroke-width=".75304"/>
  <path d="m295.55 184.49c-0.8342-0.51391 1.713 0.91264 2.5472 1.4266 0.70364 0.43348 1.9444 1.2587 2.7209 1.4979 0.90839 0.27981 1.5182 0.38884 1.9104 1.3552 0.55764 1.3742 0.30621 1.8132-0.23156 3.1384-0.53222 1.3115-0.92626 1.6257-0.92626 3.4237 0 1.0901 0.23157 2.9792 0.23157 3.709 0 1.315-0.569 2.2581-0.92625 3.1384-0.43774 1.0787-2.5032-0.20044-2.7788-0.28531-0.80316-0.24739-2.0462-0.84428-3.0103-1.1412-0.90912-0.28003-0.34636-2.858-0.23157-3.4237 0.22714-1.1194 0.91273-2.2158 1.1578-3.4237 0.31068-1.5312-0.23157-2.6242-0.23157-3.9943 0-1.1559-0.23156-2.639-0.23156-3.4237v-1.9972z" fill="none" stroke="#000" stroke-width=".75304"/>
  <path d="m302.96 190.12c0-1.2759 0.03758 1.7369-0.69468 2.6391-0.55403 0.68261-0.46313 2.7411-0.46313 3.709v4.2796c0 1.4848-1.2289 1.29-0.98414 2.4965 0.06465 0.31862 2.7889 0.92725 3.2998 0.92725 1.226 0 2.2925-0.00712 3.2419 0.28532 0.2488 0.07664 0.69469-3.0143 0.69469-3.4237v-4.2796c0-1.5112 0.4275-2.3922 0.69468-3.709 0.15683-0.77291-1.506-1.5702-1.7946-1.9258-0.44146-0.54393-2.9765-1.755-3.9944-0.99859z" fill="none" stroke="#000" stroke-width=".75304"/>
  <path d="m212.1 218.64c0.86552 1.2682 1.2502 2.3992 2.1858 2.4424 1.621 0.07482-0.94897 3.2346-1.3315 3.3524-0.33853 0.10427-1.8842 1.8614-2.0262 2.2112-0.66404 1.6363-1.8276 0.0613-2.0841-0.57063-0.48127-1.186-0.65359-1.7946-0.92625-3.1384-0.21346-1.052 1.3357-1.6788 1.8525-1.9972 0.55849-0.34406 1.6207-1.6009 2.3297-2.2998z" fill="none" stroke="#000" stroke-width=".75304"/>
  <path d="m207.79 223.29c0.83419-0.51391 0.49832 2.3258 1.1578 3.1384 0.83657 1.0307 0.30927 2.1867-0.23156 2.8531-0.74753 0.92103-1.0819 1.426-2.0841 1.9972-1.0932 0.62307-0.75096 1.1397-2.0022 1.6802-0.30898 0.13348-0.30817-4.0592-0.37132-4.462-0.216-1.3776 1.0635-1.487 1.3894-2.5678 0.45276-1.5015 0.5232-1.2844 2.142-2.6391z" fill="#5e5b18" fill-rule="evenodd" stroke="#000" stroke-width=".75304"/>
  <path d="m203.62294,228.14083c.92109-.56744.69469,2.4402.69469,3.70903 0,1.58347-.15084,1.51293-.69469,2.8531-.13761.3391-2.06443,2.43183-2.3975,2.63701-.83332.51337-.17749-.08276-.81628-2.25083-.57309-1.94507-.43737-2.61024.33911-3.35746 .43696-.4205 1.59084-1.4384 1.94842-1.87899 .54982-.67743.1754-.16997.92625-1.71186z" fill="#5e5b18" fill-rule="evenodd" stroke="#000" stroke-width=".75304"/>
  <path d="m199.22 233.56c0.72819-0.8972 1.5952 4.3568 0.94029 4.7178-0.5179 0.28544-1.5958 2.1921-1.9344 2.4007-1.3184 0.81223-0.83187-0.19147-2.0162-0.55629-0.57292-0.17648-0.69469-2.347-0.69469-3.4237 0-0.18959 1.9606-1.5597 2.0841-1.7119 0.46951-0.57849 1.1024-0.91549 1.6209-1.4266z" fill="#5e5b18" fill-rule="evenodd" stroke="#000" stroke-width=".75304"/>
  <path d="m195.06 237.56c0.78146-0.96285-1.508 0.85371-2.3156 1.7832-1.067 1.228-2.0629 2.1727-1.7946 3.495 0.2118 1.0438 1.4355 0.6519 2.0262 1.2839 1.3333 1.4266 1.7147 1.1957 2.6431-0.04895 1.2784-1.7139 1.1089-1.7051 2.0303-2.8121 0.27742-0.3333-1.2821-1.014-1.6695-1.2846" fill="none" stroke="#000" stroke-width=".75304"/>
  <path d="m190.42 242.98c0.26999-1.3306-1.3547 2.1969-1.8525 3.4237-0.62018 1.5282 0.37751 1.8917 0.92625 2.5678 0.82874 1.0211 1.0462 1.8514 1.4969 0.74072 0.37973-0.93574 2.1783-2.7012 2.6712-3.3085 0.95315-1.1744 0.89213-1.0278-0.46312-1.9972-0.89946-0.64333-1.4889-0.79087-2.7788-1.4266z" fill="none" stroke="#000" stroke-width=".75304"/>
  <path d="m188.57 247.94c-0.98122-0.60448 1.0748 1.2174 1.8506 2.1731 0.49114 0.60516-1.2438 2.3884-1.3894 2.5678-0.70749 0.8717-0.84682 1.7668-1.4432 2.5015-0.51526 0.63485-1.5672-0.82225-1.5672-2.2162 0-1.7554 0.66409-2.1317 0.92625-3.4237 0.03273-0.16134 1.5727-1.4479 1.6229-1.6025z" fill="none" stroke="#000" stroke-width=".75304"/>
  <path d="m187.43 255.25c-0.47675 1.8453-1.1083 2.4895-1.8666 3.4237-0.98511 1.2138-0.34173 1.5353-1.6209 1.1412-0.55156-0.16989-0.65624-1.616-0.46312-2.5678 0.1586-0.78168 1.2148-2.2819 1.3894-2.8531 0.49456-1.6181 1.5896-0.34123 2.5612 0.85593z" fill="none" stroke="#000" stroke-width=".75304"/>
  <path d="m184.4 260.67c0.70954-0.87422-0.44828 2.5495-1.1578 3.4237-0.88363 1.0887 0.322 2.5243-1.3894 1.9972-1.3158-0.40531-1.231-0.63808-0.92625-2.1398 0.22011-1.0848 0.79278-2.0962 1.1578-2.9957 0.86018-2.1197 0.59904-1.5543 2.3156-0.28532z" fill="none" stroke="#000" stroke-width=".75304"/>
  <path d="m181.6245,266.94296c.41709-1.02782-.49832,2.32584-1.15782,3.1384-.84668,1.04321-.85692,1.79728-1.8525.57062-1.17267-1.44487-.48399-1.7639.69469-2.8531 .67285-.62176.8821-1.94275 1.38938-2.56778 .39358-.48493.67733,1.09846.92625,1.71186z" fill="none" stroke="#000" stroke-width=".75304"/>
  <path d="m179.31 271.51c0.7947-0.97914-0.92625 2.6096-0.92625 3.9943 0 2.0779-1.6452 0.22541-1.8525-0.28531-0.49558-1.2212-1.6077-0.35066-1.1578-2.5678 0.24309-1.198 1.2239-1.5893 1.6209-2.5678 0.38594-0.95103 1.7765 0.59627 2.3156 1.4266z" fill="none" stroke="#000" stroke-width=".75304"/>
  <path d="m177.69 276.64c0.49062-1.209-1.3083 2.1826-2.0841 3.1384-0.93773 1.1554-1.1926-0.22472-2.3156-0.57063-1.5458-0.47616-0.45575-1.4629-0.23155-2.5678 0.14091-0.69449 1.3985-1.7232 1.8525-2.2825 0.90303-1.1126 1.2908 0.16382 1.8525 0.85593 0.34948 0.43059 0.6175 0.95103 0.92624 1.4266z" fill="none" stroke="#000" stroke-width=".75304"/>
  <path transform="matrix(.51648 -.16117 .11309 .73606 107.23 225.66)" d="m154.45 93.421a9.9644 3.9858 0 1 1 -19.929 0 9.9644 3.9858 0 1 1 19.929 0z" fill="url(#m)"/>
  <path transform="matrix(.7087 0 0 .87768 -44.633 -14.771)" d="m449.53 285.41a19.728 17.615 0 1 1 -39.457 0 19.728 17.615 0 1 1 39.457 0z" fill="url(#a)"/>
  <g transform="matrix(.67842 0 0 .83588 8.6559 -12.707)" fill="url(#a)">
   <path transform="matrix(1.0495 0 0 1.3165 -76.409 -90.056)" d="m443.54 294.04a17.791 13.916 0 1 1 -35.582 0 17.791 13.916 0 1 1 35.582 0z"/>
   <path transform="matrix(.91936 0 0 .96226 -22.097 25.008)" d="m442 282.34a15.5 13.25 0 1 1 -31 0 15.5 13.25 0 1 1 31 0z"/>
   <path transform="matrix(.67985 0 0 .77548 80.581 77.745)" d="m442 282.34a15.5 13.25 0 1 1 -31 0 15.5 13.25 0 1 1 31 0z"/>
   <path transform="matrix(.63423 0 0 .72211 100.04 92.813)" d="m442 282.34a15.5 13.25 0 1 1 -31 0 15.5 13.25 0 1 1 31 0z"/>
   <path d="m365.06145,291.89515c-.3261.11498-.96189.76118-1.29337,1.05374l-.99488.87811c-.33339.29425-.41778,1.19358-.49746,1.75623-.11447.80827-.5675.89111.19898,1.22935 .62854.27737.75592-.45627.99489-.87812 .31586-.55754.34753-.8336.79593-1.22935l.9949-.87811c.3385-.29878.95014-.19977 1.29337-.35125 .40365-.17815.86976-.17561 1.39285-.17561 .40741,0 .96365-.32368 1.19389-.52689 .36442-.32164.66216-.642.89539-1.05372 .43825-.77361-.57997-1.3536-.69643-1.40497-.43699-.19284-.85691-.17563-1.39285-.17563-.3675,0-.83669.36924-1.19389.52688-.42806.1889-.82189.37416-1.19388.70248-.17294.15266-.33161.35124-.49744.52686z" fill-rule="evenodd"/>
   <path d="m375.94505,291.92375c.25115.1003.74081.66421.99607.91948l.7662.76627c.25676.25673.32174,1.04153.38311,1.5325 .08818.70531.43705.77756-.15323,1.0727-.48405.24208-.58217-.39811-.76621-.76625-.24324-.48646-.26763-.7274-.61297-1.0727l-.76623-.76625c-.26069-.26073-.73172-.17437-.99607-.30652-.31087-.15544-.66983-.15322-1.07269-.15322-.31375,0-.74212-.28248-.91945-.4598-.28063-.28062-.50996-.56021-.68957-.91948-.33753-.67506.44664-1.18115.53634-1.22596 .33655-.16831.65995-.15326 1.07268-.15326 .28304,0 .64438.32217.91945.45976 .32968.16483.63299.32651.91947.61297 .13317.1332.25539.30649.3831.45976z" fill-rule="evenodd"/>
  </g>
  <path d="m238.04 189.71c20.138-8.9575-26.214-8.008-43.492 16.594-7.9901 6.4986-8.3026 14.074-14.936 24.341-3.7478 8.8813-7.2849 15.782-14.495 34.196-2.4804 7.7524-8.7091 14.304-5.2917 22.372 7.1177-0.3004 7.4867 1.8932 10.57-7.7334 6.7746-12.213 7.9565-21.333 15.552-32.762 6.4265-11.083 20.246-25.376 30.344-36.546 1.5032-3.5281 8.2592-11.722 11.181-13.736 5.6659-3.9047 1.6121-2.7423 10.568-6.7258z" fill="url(#l)" fill-rule="evenodd"/>
  <path d="m164.55 278.31c10.53-1.7216 30.735 15.485 10.492 13.498-22.764-1.6022-14.036-0.04151-21.503-2.0622 3.9765-9.8116 6.6434-10.445 11.011-11.436z" fill="#626d20" fill-rule="evenodd"/>
  <path d="m152.49 297.1c1.0719-2.2291 0.55538-7.1734 3.5871-6.0523 2.5213-0.02366 5.0531 0.15908 7.5472-0.40348 1.5319 3.5459 3.8481-0.32857 6.3814 1.155 2.2517 0.72294 4.4666 1.0325 6.7177 0.05552 1.9846 2.2213 4.3073 1.1058 6.5983 0.93338 2.2761 1.3002 4.5522 0.98369 6.8283-0.12641 2.7616 1.384 5.5464 0.44444 8.3275-0.13895 2.3404 1.5096 4.7568 0.49691 6.9469-0.85594 2.3847-0.45446 4.8573 1.9996 6.9469-0.2853 2.3763 0.16274 4.3248 0.77444 6.4011-1.1384 2.1819-1.1919 4.471 0.51792 6.1032 0.85308 2.398-2.363 5.6377-1.2639 8.0315 0.28531 2.2811-0.5292 4.4731-1.4916 6.6343-0.4212 2.2151-0.59106 4.2816-2.7128 6.638-1.2906 1.9645-0.93157 4.238-3.0691 6.1854-0.69335 2.073 2.4789 4.2518-2.1105 6.6098-0.2621 1.2537 1.4587 4.2461 1.6378 5.4231-0.51891 2.6385-1.0056 5.1418 2.7775 7.6458 0.21341 2.7023-0.57266 5.0282 2.1005 7.8216 1.261 2.7288 1.0214 5.4991-0.50232 8.3091 0.37229 3.4042 0.3142 7.2081-1.5585 10.312 1.1316 3.46 2.1145 6.8293 4.4703 10.678 5.3435 1.673 2.692 4.6626 1.5643 6.8401 3.3335 2.3656 0.73305 4.2894 2.2552 6.5798 3.226 2.0917 0.74644 3.9713 1.9908 6.2629 1.4292 6.1378-1.1163 14.424-10.651 18.906-15.635 2.7517-4.1128-1.474 6.2506-2.868 7.1143-2.4767 2.4202-5.2526 7.4073-8.7976 8.2005-3.8005 1.7355-7.2711 5.0805-11.494 4.5999-4.0799 0.3304-7.5354-2.687-11.453-3.5623-3.4353-1.0238-6.4127-3.5718-9.9969-3.8558-3.1155-1.8378-6.2254-3.9284-9.3371-5.5788-4.4636-1.2699-8.987-1.3541-13.514-0.69795-3.5172-0.17364-7.1817 0.26257-10.596 0.0381-2.4756-1.4672-5.6255 1.3823-8.2334-0.32342-3.2124 0.60917-6.5339 1.2209-9.6438 0.10066-2.291 1.499-4.4195-0.40219-6.7264 0.11155-2.5728 0.89179-5.0977-0.95235-7.5719 0.6499-3.2989 1.2646-6.4912-1.49-9.7866-0.66274-2.4664-0.877-4.8955-0.87364-7.2287 0.46517-2.4921 0.71005-5.1246 9.4e-4 -7.6767 0.83424-3.9227 0.78362-7.8889 1.5197-11.804 0.21308-5.6356-0.37713-11.35 1.0502-16.904-0.57063-1.2492 2.2328-4.4885 0.53195-6.5689 0.85593-2.3388 0.34339-4.4065 1.4736-6.8689 0.98642-2.5774 0.39905-5.1152 1.0648-7.6344-0.13049-3.1224 1.5108-6.3136 0.69431-9.4111-0.31972l-1.1474-0.23853z" fill="#97d366" fill-rule="evenodd" stroke="#000" stroke-width=".75304"/>
  <path d="m271.66 163.87c10.082-5.9948 20.883-10.158 30.157-18.078 12.97-7.6858 26.941-12.991 40.911-16.9 14.242 0.4712 23.692 7.5562 20.266 28.437-4.5133 13.087-3.1828 43.095-13.325 45.299 2.9793-4.7354 6.1801-13.253 6.4829-21.331 0.98691-7.5726 3.3029-15.73 3.5611-22.096 0.26225-6.4677 1.6687-12.619 0.84466-16.382-7.3456-16.314-25.669-5.6927-35.455-0.34111-16.601 7.3846-30.432 28.102-49.622 23.388l-2.0063-0.71454-1.813-1.2814z" fill="#a6933c" fill-opacity=".38342" fill-rule="evenodd"/>
  <path d="m313.19 157.3c5.5066-5.5648 11.841-9.2341 18.017-13.706 2.3954-2.4167 5.3337-3.3573 8.2807-4.2279 3.6272-0.83352 7.3542 0.49934 11.022 0.56883 1.887 2.1771 5.2154 3.9758 5.5833 7.4822 0 7.5118-1.7744 17.756-1.7744 25.268-2.0523 6.3233-1.9247 13.991-4.9542 19.751-1.5324 3.3478-4.8392 5.6024-6.3716 8.9502-7.4746 4.0574-10.341-1.7005-15.169-2.0861-12.483-3.6835-22.874-13.033-34.756-18.864-2.7157-1.3936-8.4392-1.9577-9.7709-5.6815 1.5414-6.0702 10.106-4.7704 14.768-6.266 4.797-1.8116 8.1681-6.1544 12.584-9.1131 0.84712-0.51009 1.6942-1.5667 2.5414-2.0768z" fill="url(#k)" fill-rule="evenodd"/>
  <path d="m156.83 304.18c14.075 22.077 35.588 31.684 57.384 34.514 21.374 9.6067 43.536 6.5128 64.822 11.336 9.3443 1.8204 18.792 5.4831 34.45 3.361 12.919-1.7508 26.88-1.2839 39.774-5.1128 17.762-0.20085 17.129-9.9595 5.0419-15.77-3.0548-6.1851-27.706-0.78333-32.976-1.2886-0.8629-1.3885-5.6254-3.4346 2.5744-7.7639 4.9408-1.4243 9.144-4.648 12.95-9.8926 3.2106-4.4239 4.7461-8.8536 7.2455-19.426-6.1473 8.9451-9.3326 11.98-12.447 12.995s-5.2712 3.2917-8.474 3.8876-7.8953-0.4883-10.758-0.72755-5.8932-2.6396-7.989-4.1293c-10.79-5.0583-29.831-9.8038-41.248-7.9658-36.787 1.8681-73.602 3.062-110.35 5.9827z" fill="url(#j)" fill-rule="evenodd"/>
  <path d="m403.97 334.68c-0.21203 7.2058 6.6115 12.467 12.658 16.571 8.3246 5.7806 18.089 10.64 23.541 18.856 5.7617 6.9808 10.294 15.112 18.635 20.168 4.5005 2.5018 9.9674 0.82107 13.853-1.7318 3.3681-2.3631 8.3092-3.9747 9.1067-8.0234 1.3786-3.372 2.6791-6.9109 2.2894-10.531-3.3941-2.0518-6.9632 0.69636-9.6133 2.4507-3.9686 3.4777-9.8099 0.36791-11.449-3.4714-3.0017-4.3659-5.1672-9.1601-8.5442-13.341-7.5093-7.9198-18.071-13.066-26.534-20.127-3.1409-2.5003-6.4012-7.6221-11.421-5.0518-3.9526 1.9012-8.3676 2.7239-12.523 4.2323z" fill="url(#i)" fill-rule="evenodd"/>
  <path d="m245.02 598.45c11.949 1.9782 23.898 4.1542 35.846 0.6851 16.361-3.2687 33.472-0.33641 48.964-9.0314 13.287-6.0648 25.39-15.408 36.183-26.833 15.057-3.6876 29.645-9.4486 44.041-16.056 5.4105 1.4567 13.195 10.954 17.237 2.8153 10.87-27.663 26.54-52.146 44.669-72.953 13.956-5.9113 29.037-10.796 43.484-4.9391 6.9928 0.21864 12.901 0.76233 8.6114 11.146 18.19 6.5149 35.223 17.088 52.661 25.919 18.554 18.459 38.765 34.069 59.689 47.86 8.7762 6.8924 13.495 17.993 17.473 29.424-1.2968 17.066-6.7538 35.463-17.943 13.617-21.944-24.507-46.685-44.815-71.091-65.135-13.17-11.273-28.632-16.71-43.844-22.057-4.8852 12.041-5.9588 27.276-17.259 6.5561-6.345-7.716-14.937-15.788-25.145-11.478-6.0721 12.349-27.752 25.504-20.706 42.118 3.2725 9.7597-3.591 10.768-4.1205 21.486-22.226 4.9693-26.775 20.819-49.231 14.765-33.083 4.5661-61.81 28.382-94.469 35.464-18.708 8.5806-37.983 1.6423-56.035-5.4726-17.9-7.9241-38.595-14.506-55.426 0.93955-9.2983 7.6207-10.431 9.029-22.105 10.673-6.2159 2.6052-21.391-9.3827-28.93-5.614-11.029-18.586 26.43-16.746 37.25-17.575 19.98-1.5031 37.946-20.015 58.003-5.8822-0.60506-0.16448 4.1978 1.3541 2.1931-0.44361z" fill="#18110b" fill-opacity=".67876" fill-rule="evenodd" opacity=".21028"/>
  <path d="m245.21 594.1c11.884 1.9843 23.768 4.162 35.635 0.81771 16.255-3.1301 33.273-0.19129 48.649-8.633 13.192-5.8779 25.197-14.967 35.896-26.099 14.958-3.5452 29.444-9.1206 43.737-15.524 5.3824 1.4472 13.146 10.769 17.142 2.8249 10.73-27.015 26.241-50.9 44.207-71.178 13.857-5.725 28.836-10.441 43.213-4.6525 6.952 0.24266 12.826 0.79881 8.5905 10.939 18.1 6.4478 35.061 16.86 52.42 25.571 18.494 18.133 38.627 33.485 59.465 47.063 8.7428 6.7783 13.464 17.657 17.449 28.855-1.2429 16.688-6.6176 34.662-17.8 13.246-21.881-24.063-46.53-44.03-70.846-64.008-13.123-11.082-28.507-16.463-43.644-21.756-4.8236 11.759-5.8496 26.656-17.139 6.3421-6.3283-7.574-14.891-15.505-25.027-11.331-6.0026 12.055-27.519 24.834-20.469 41.115 3.2796 9.5604-3.5405 10.518-4.0378 21.001-22.08 4.7695-26.559 20.255-48.899 14.24-32.875 4.3304-61.367 27.509-93.813 34.302-18.574 8.3166-37.754 1.4501-55.718-5.5839-17.815-7.8251-38.405-14.349-55.095 0.69092-9.2225 7.4163-10.345 8.7892-21.945 10.349-6.172 2.5228-21.289-9.2663-28.774-5.6107-11.014-18.227 26.228-16.272 36.981-17.039 19.858-1.3881 37.667-19.423 57.643-5.5153-0.60192-0.16339 4.1766 1.3418 2.1789-0.42492z" fill="#3f2409" fill-rule="evenodd" stroke="#000" stroke-width="3.0504"/>
  <path d="m378.61 516.2c6.9363 28.937-21.014 32.588-29.503 50.824-4.1364 39.113 39.604-45.705 29.278 2.5697-4.4727 43.271 31.424-22.81 16.085-39.057-4.3476-14.62-5.786-21.839-4.1249-27.24s5.4807-9.37 13.531-16.717c-5.0158-10.518-8.3589-20.163-11.665-27.27-3.2351 2.4112-10.808 10.935-13.321 15.015s-3.9578 10.433-4.087 17.823 1.057 15.819 3.8054 24.052z" fill="#485d3e" fill-rule="evenodd" stroke="#000" stroke-width=".75304"/>
  <path d="m535.12 431.77c22.104 1.0269 44.797 2.4511 65.315 11.526 8.7296 3.4168 18.059 5.8623 26.079 10.734 6.7018 6.5057 16.928 7.2811 23.771 13.439 7.2406 8.2801 17.263 16.663 17.02 28.671 0.29402 10.384-10.311 18.358-20.224 17.259-7.2664-1.2252-14.456 0.30205-21.591 1.6094-5.9919 1.0651-12.388 0.89922-17.892-1.9535-8.4983-3.0598-19.077 2.7216-21.046 10.109-3.1671 7.4278-14.552 12.592-20.969 14.3-5.1498-1.7272-16.315-7.5423-4.3774-12.462 9.7963-3.3072 8.6909-3.1405 12.42-5.6218 4.0058-3.7856 1.8212-7.449 0.29997-11.3-0.69767-1.7662-0.44631-0.32032-6.2186-4.4713-3.4938-2.5125-11.225-0.48342-3.0428-8.5181 6.2603-5.252 14.369-6.4228 22.374-4.5515 6.4804 5.2282 14.068 9.2492 22.984 7.5474 12.577 0.22237 25.108-1.8448 37.695-1.1414 4.3676-5.9616-1.454-13.115-7.257-15.241-26.303-7.7718-53.959-16.293-81.644-11.138-8.7071 0.33501-16.829 3.9763-25.444 4.9068-8.8416-1.168-11.778-11.414-12.354-19.015-0.40419-8.2634 0.6992-17.931 7.3568-23.62 1.9392-1.3201 4.4934-1.8992 6.7456-1.0667z" fill="#091104" fill-rule="evenodd"/>
  <path d="m593.87 609.91c0-0.12174-0.00731-0.25384-0.02181-0.39595s-0.03622-0.29422-0.06502-0.456-0.0647-0.33319-0.10759-0.51392-0.09275-0.37076-0.1495-0.56973-0.12039-0.4069-0.1908-0.62342-0.14759-0.44163-0.23145-0.67499-0.17437-0.47495-0.27145-0.72443-0.20073-0.50685-0.31083-0.77175-0.22666-0.53734-0.34956-0.81695-0.25216-0.56642-0.38765-0.86004l-0.42511-0.90099c-0.14787-0.30692-0.30188-0.62032-0.46192-0.93983s-0.32611-0.64515-0.4981-0.97655-0.34991-0.66856-0.53364-1.0111l-0.56854-1.0436-0.6028-1.074c-1.6526-2.9025-4.9812-4.6211-6.7209-8.9355-1.3344-3.3093-6.171-9.982-9.0401-13.365s-4.0098-3.9855-7.3236-7.0658-6.8227-5.9188-10.472-8.3343-7.4396-4.4082-11.316-5.797-7.8385-2.1737-11.832-2.1737c-31.951 0-69.615 5.0158-60.172 2.9272 4.8943-1.0825 18.472 40.781 20.331 42.223" fill="#3c5627"/>
  <path d="m492.22 596.07c26.653-6.3328 56.108-4.8542 80.234-19.394 6.6232 1.9237 13.973 21.058 20.526 25.211 12.173 12.583 28.727 9.0549 44.266 4.6173 18.924-5.4452 35.238-17.935 46.148-34.23 27.484-35.085 31.833-78.405 15.051-128.4-10.688-29.755-45.741-67.548-78.864-64.403-13.175-0.70496-43.639 16.324-36.641 44.338-0.11006 13.353 26.22 20.441 38.06 10.962 19.779-14.711 25.023-16.961 15.702-2.9585-9.2214 8.9643-23.202 25.124-37.048 18.09-11.566-4.0068-30.542-2.8587-33.093-18.313-2.8208-24.242 9.1292-49.672 31.05-61.177 27.485-15.953 61.853-4.3297 84.41 14.904 11.525 10.46 22.423 22.361 31.515 34.911 25.738 37.294 30.531 88.57 13.345 130.85-18.746 49.258-65.591 88.749-119.19 91.802-43.092 3.0966-84.856-17.733-115.47-46.817z" fill="url(#g)" opacity=".6028"/>
  <path d="m533.12 429.77c22.104 1.0269 44.797 2.4511 65.315 11.526 8.7296 3.4168 18.059 5.8623 26.079 10.734 6.7018 6.5057 16.928 7.2811 23.771 13.439 7.2406 8.2801 17.263 16.663 17.02 28.671 0.29402 10.384-10.311 18.358-20.224 17.259-7.2664-1.2252-14.456 0.30205-21.591 1.6094-5.9919 1.0651-12.388 0.89922-17.892-1.9535-8.4983-3.0598-19.077 2.7216-21.046 10.109-3.1671 7.4278-14.552 12.592-20.969 14.3-5.1498-1.7272-16.315-7.5423-4.3774-12.462 9.7963-3.3072 8.6909-3.1405 12.42-5.6218 4.0058-3.7856 1.8212-7.449 0.29997-11.3-0.69767-1.7662-0.44631-0.32032-6.2186-4.4713-3.4938-2.5125-11.225-0.48342-3.0428-8.5181 6.2603-5.252 14.369-6.4228 22.374-4.5515 6.4804 5.2282 14.068 9.2492 22.984 7.5474 12.577 0.22237 25.108-1.8448 37.695-1.1414 4.3676-5.9616-1.454-13.115-7.257-15.241-26.303-7.7718-53.959-16.293-81.644-11.138-8.7071 0.33501-16.829 3.9763-25.444 4.9068-8.8416-1.168-11.778-11.414-12.354-19.015-0.40419-8.2634 0.6992-17.931 7.3568-23.62 1.9392-1.3201 4.4934-1.8992 6.7456-1.0667z" fill="#5f844e" fill-rule="evenodd" stroke="#000" stroke-width=".75304"/>
  <path d="m343.7 364.67c-1.6547 25.813-23.038 47.488-25.826 77.959-1.3033 17.146-7.8519 22.076-10.621 38.939-5.9259 16.251-25.981 56.537-33.219 71.839-0.09067 13.41-26.858 36.269-20.952 41.661 12.91-1.167 12.732 1.695 12.144 1.2674s3.9072-1.8241 8.3177-1.4878c5.3825 6.8037 4.1595 24.977-3.1825 25.418-12.913 0.77563-4.6004 16.493 5.9992 11.442 18.439 15.911 26.392-53.092 8.5792-58.431 10.546-18.822 13.295-16.992 43.693-90.046 15.052-18.645 6.6501-42.883 21.952-58.186 10.869-11.777 7.7214-32.214 14.602-36.269 15.816-8.589 1.0754-8.2804-7.0312-19.526-4.6749-1.9601-9.3799-5.2238-14.457-4.5787z" fill="#121808" fill-rule="evenodd"/>
  <path d="m342.34 364.67c-1.6547 25.813-23.038 47.488-25.826 77.959-1.3033 17.146-7.8519 22.076-10.62 38.939-5.9259 16.251-25.981 56.537-33.219 71.839-0.09067 13.41-26.858 36.269-20.952 41.661 12.91-1.167 12.732 1.695 12.144 1.2674s3.9072-1.8241 8.3177-1.4878c5.3825 6.8037 4.1595 24.977-3.1825 25.418-12.913 0.77563-4.6004 16.493 5.9992 11.442 18.439 15.911 26.392-53.092 8.5792-58.431 10.546-18.822 13.295-16.992 43.693-90.046 15.052-18.645 6.6501-42.883 21.952-58.186 10.869-11.777 7.7214-32.214 14.602-36.269 15.816-8.589 1.0754-8.2804-7.0312-19.526-4.6749-1.9601-9.3799-5.2238-14.457-4.5787z" fill="#5f844e" fill-rule="evenodd" stroke="#000" stroke-width=".75304"/>
  <path d="m401.78 278.31c16.636-3.4572 28.708 15.78 44.774 16.577 11.833 1.231 23.515-2.6449 35.377-2.2497 10.703 0.31292 21.951-2.1668 31.995 3.5738 9.187 4.5627 23.411 13.606 19.239 28.501-4.0741 11.587-8.5085 23.004-10.117 35.637-4.5 15.526-10.859 32.074-7.1274 48.929 0.93452 15.118-5.8739 29.186-4.8208 44.324-2.7937 10.745 0.3673 21.21 2.8722 31.364 0.18797 14.879-6.6156 30.4-17.289 37.601-7.2109 4.7584-17.364 4.2798-21.358-6.0669-0.58055-13.988 15.81-9.7056 17.969-19.554 4.9514-10.299 3.1018-26.053-9.1117-24.522-10.618 0.17644-19.604 9.1505-25.719 19.144-8.9169 10.602-14.882-12.505-7.9494-19.207 7.5604-11.113 19.358-13.902 30.27-16.692 10.873-4.3611 10.376-20.822 12.017-32.233 1.4695-14.233 1.7654-28.717 4.3871-42.712 0.23326-15.644 4.3086-32.024-0.03886-47.211-7.1196-7.654-18.02-3.3142-26.78-4.8949-12.579 0.4781-25.158-0.54053-37.579-2.8534-13.06-0.02887-24.462 9.8899-37.263 11.392-13.66-0.799-18.932-20.148-16.959-34.4 2.1876-12.375 9.7316-25.703 21.255-23.981l1.9555-0.46644z" fill="#111d0c" fill-rule="evenodd"/>
  <path d="m400.42 279.98c16.636-3.4572 28.708 15.78 44.774 16.578 11.833 1.231 23.515-2.6449 35.377-2.2497 10.703 0.31292 21.951-2.1668 31.995 3.5738 9.187 4.5627 23.411 13.606 19.239 28.501-4.0741 11.587-8.5085 23.004-10.117 35.637-4.5 15.526-10.859 32.074-7.1274 48.929 0.93452 15.118-5.8739 29.186-4.8208 44.324-2.7937 10.745 0.36729 21.21 2.8722 31.364 0.18798 14.879-6.6155 30.4-17.289 37.601-7.2109 4.7584-17.364 4.2798-21.358-6.0668-0.58056-13.988 15.81-9.7056 17.969-19.554 4.9514-10.299 3.1018-26.053-9.1117-24.522-10.618 0.17645-19.604 9.1505-25.719 19.144-8.9169 10.602-14.882-12.505-7.9494-19.207 7.5604-11.113 19.358-13.902 30.27-16.692 10.873-4.3611 10.376-20.822 12.017-32.233 1.4695-14.233 1.7654-28.717 4.3871-42.712 0.23326-15.644 4.3086-32.024-0.03886-47.211-7.1196-7.6539-18.02-3.3142-26.78-4.8949-12.579 0.4781-25.158-0.54053-37.579-2.8534-13.06-0.02887-24.462 9.8899-37.263 11.392-13.66-0.79899-18.932-20.148-16.959-34.4 2.1876-12.375 9.7316-25.703 21.255-23.981l1.9555-0.46644z" fill="#5f844e" fill-rule="evenodd" stroke="#000" stroke-width=".75304"/>
  <path d="m512.76 530.88c7.6488 30.457 23.236 43.42 14.642 73.318 3.4968 4.4368 13.135 1.3118 14.402-1.1503 1.8152-10.673-0.91398-11.211 9.8762-14.956 4.6261-2.2288 8.2954-2.1057 13.005-3.2024 6.8377-1.8052 16.984 0.55765 15.251-6.587-9.2918-3.5837-25.561-11.935-32.773-19.964-10.744-8.931-24.385-29.48-25.436-43.219-0.15522-6.8793-0.30686 0.60428-3.0944 5.9361-0.6351 8.2712-3.0675 9.5794-5.872 9.8246z" fill="#161412" fill-rule="evenodd" stroke="#000"/>
  <path d="m510.76 528.88c7.6488 30.457 23.236 43.42 14.642 73.318 3.4968 4.4368 13.135 1.3118 14.402-1.1503 1.8152-10.673-0.91398-11.211 9.8762-14.956 4.6261-2.2288 8.2954-2.1057 13.005-3.2024 6.8377-1.8052 16.984 0.55765 15.251-6.587-9.2918-3.5837-25.561-11.935-32.773-19.964-10.744-8.931-24.385-29.48-25.436-43.219-0.15522-6.8793-0.30686 0.60428-3.0944 5.9361-0.6351 8.2712-3.0675 9.5794-5.872 9.8246z" fill="#3f2409" fill-rule="evenodd" stroke="#000"/>
  <path d="m400.42 279.98c16.636-3.4572 28.708 15.78 44.774 16.578 11.833 1.231 23.515-2.6449 35.377-2.2497 10.703 0.31292 21.951-2.1668 31.995 3.5738 9.187 4.5627 23.411 13.606 19.239 28.501-4.0741 11.587-8.5085 23.004-10.117 35.637-4.5 15.526-10.859 32.074-7.1274 48.929 0.93452 15.118-5.8739 29.186-4.8208 44.324-2.7937 10.745 0.36729 21.21 2.8722 31.364 0.18798 14.879-6.6155 30.4-17.289 37.601-7.2109 4.7584-17.364 4.2798-21.358-6.0668-0.58056-13.988 15.81-9.7056 17.969-19.554 4.9514-10.299 3.1018-26.053-9.1117-24.522-10.618 0.17645-19.604 9.1505-25.719 19.144-8.9169 10.602-14.882-12.505-7.9494-19.207 7.5604-11.113 19.358-13.902 30.27-16.692 10.873-4.3611 10.376-20.822 12.017-32.233 1.4695-14.233 1.7654-28.717 4.3871-42.712 0.23326-15.644 4.3086-32.024-0.03886-47.211-7.1196-7.6539-18.02-3.3142-26.78-4.8949-12.579 0.4781-25.158-0.54053-37.579-2.8534-13.06-0.02887-24.462 9.8899-37.263 11.392-13.66-0.79899-18.932-20.148-16.959-34.4 2.1876-12.375 9.7316-25.703 21.255-23.981l1.9555-0.46644z" fill="url(#h)" fill-rule="evenodd" opacity=".66355"/>
  <path d="m342.34 364.67c-1.6547 25.813-23.038 47.488-25.826 77.959-1.3033 17.146-7.8519 22.076-10.62 38.939-5.9259 16.251-25.981 56.537-33.219 71.839-0.09067 13.41-26.858 36.269-20.952 41.661 12.91-1.167 12.732 1.695 12.144 1.2674s3.9072-1.8241 8.3177-1.4878c5.3825 6.8037 4.1595 24.977-3.1825 25.418-12.913 0.77563-4.6004 16.493 5.9992 11.442 18.439 15.911 26.392-53.092 8.5792-58.431 10.546-18.822 13.295-16.992 43.693-90.046 15.052-18.645 6.6501-42.883 21.952-58.186 10.869-11.777 7.7214-32.214 14.602-36.269 15.816-8.589 1.0754-8.2804-7.0312-19.526-4.6749-1.9601-9.3799-5.2238-14.457-4.5787z" fill="url(#f)" fill-rule="evenodd"/>
  <path d="m378.61 516.2c6.9363 28.937-21.014 32.588-29.503 50.824-4.1364 39.113 39.604-45.705 29.278 2.5697-4.4727 43.271 31.424-22.81 16.085-39.057-4.3476-14.62-5.786-21.839-4.1249-27.24s5.4807-9.37 13.531-16.717c-5.0158-10.518-8.3589-20.163-11.665-27.27-3.2351 2.4112-10.808 10.935-13.321 15.015s-3.9578 10.433-4.087 17.823 1.057 15.819 3.8054 24.052z" fill="url(#e)" fill-rule="evenodd" stroke="#000" stroke-width=".75304"/>
  <path d="m533.12 429.77c22.104 1.0269 44.797 2.4511 65.315 11.526 8.7296 3.4168 18.059 5.8623 26.079 10.734 6.7018 6.5057 16.928 7.2811 23.771 13.439 7.2406 8.2801 17.263 16.663 17.02 28.671 0.29402 10.384-10.311 18.358-20.224 17.259-7.2664-1.2252-14.456 0.30205-21.591 1.6094-5.9919 1.0651-12.388 0.89922-17.892-1.9535-8.4983-3.0598-19.077 2.7216-21.046 10.109-3.1671 7.4278-14.552 12.592-20.969 14.3-5.1498-1.7272-16.315-7.5423-4.3774-12.462 9.7963-3.3072 8.6909-3.1405 12.42-5.6218 4.0058-3.7856 1.8212-7.449 0.29997-11.3-0.69767-1.7662-0.44631-0.32032-6.2186-4.4713-3.4938-2.5125-11.225-0.48342-3.0428-8.5181 6.2603-5.252 14.369-6.4228 22.374-4.5515 6.4804 5.2282 14.068 9.2492 22.984 7.5474 12.577 0.22237 25.108-1.8448 37.695-1.1414 4.3676-5.9616-1.454-13.115-7.257-15.241-26.303-7.7718-53.959-16.293-81.644-11.138-8.7071 0.33501-16.829 3.9763-25.444 4.9068-8.8416-1.168-11.778-11.414-12.354-19.015-0.40419-8.2634 0.6992-17.931 7.3568-23.62 1.9392-1.3201 4.4934-1.8992 6.7456-1.0667z" fill="url(#d)" fill-rule="evenodd"/>
  <path d="m85.002 519.17c-0.99747 4.4085 3.5647 9.028 5.2309 15.693 1.7727 7.0907 7.5935 15.44 13.077 20.924 5.2462 5.2462 11.013 13.629 14.385 17 5.6202 5.6202 8.9916 8.0514 15.693 13.077 6.2463 4.6847 8.1483-0.09997 10.462 9.1541 2.1347 8.5388-0.28269 9.6666 6.5386 13.077l5.2309 2.6154" fill="none" stroke="#000"/>
  <path d="m208.48 630.08c8.3402 3.2365 21.902 12.152 32.073 18.918 7.7652 5.1657 9.4903 4.5698 11.546 10.953 1.5223 4.7259 4.647 10.444 6.4147 15.931 1.4754 4.5803 4.522 6.0234 7.6976 10.953 2.6042 4.0423 8.3806 6.5043 11.546 8.9613l10.263 7.9656c4.1574 3.2266 4.8556 5.7599 8.9805 8.9612 5.2586 4.0812 3.8488 5.8053 3.8488 7.9656 0 0.99027-16.846-1.775-17.961-1.9914-7.3904-1.4339-15.982-2.852-21.81-3.9828-6.7507-1.3098-12.778 1.2346-16.678 1.9914-5.4073 1.0492-11.072 1.9914-17.961 1.9914-5.079 0-11.31-0.99569-17.961-0.99569-5.079 0-11.31-0.99569-17.961-0.99569-4.9796 0-12.111-0.9957-17.961-0.9957h-19.244c-6.4249 0-12.386-1.0818-17.961 0-6.418 1.2453-7.8801-4.5494-8.9805-7.9656-1.5064-4.6766 1.2829-8.7444 1.2829-13.94v-14.935c0-4.9351-4.184-9.3081-7.6976-12.944-4.0113-4.151-6.2876-5.5799-7.6976-9.957-1.4998-4.656-6.1317-9.0785-7.6976-13.94-1.8122-5.6257-3.0783-11.748-6.4147-16.927-2.8972-4.497-7.1092-8.048-8.9805-10.953l-6.4147-9.957c-2.9222-4.536-5.5077-9.3503-8.9805-12.944-3.3447-3.4611-7.1951-7.5756-10.263-9.957-4.9135-3.8134-7.9343-5.1622-11.546-7.9656-4.0363-3.1326-5.0364-5.9002-8.9805-8.9613-2.2156-1.7195-4.3663-8.5766-5.1317-10.953-1.5461-4.7998 0.90179-7.778 2.5659-12.944 1.4322-4.446 3.7173-7.5574 5.1317-11.948 1.4876-4.6182 1.1388-9.5094 2.5659-13.94 1.491-4.6289 0-11.101 0-15.931 0-5.1128 1.8596-8.4132 5.1317-10.953 1.4099-1.0943 21.143 16.409 23.093 17.923 4.6206 3.5861 8.6931 13.048 10.263 17.923 1.6696 5.1833 9.0057 7.9851 11.546 9.9569 4.0367 3.133 11.908 5.9359 15.395 7.9656 2.0834 1.2127 5.2288 8.1163 6.4147 9.957 0.97739 1.5171 1.7233 2.0062 2.5659 2.9871" fill="#3f2409" fill-rule="evenodd" stroke="#000" stroke-width=".86427"/>
  <path d="m210.48 632.08c8.3402 3.2365 21.902 12.152 32.073 18.918 7.7652 5.1657 9.4903 4.5698 11.546 10.953 1.5223 4.7259 4.647 10.444 6.4147 15.931 1.4754 4.5803 4.522 6.0234 7.6976 10.953 2.6042 4.0423 8.3806 6.5043 11.546 8.9613l10.263 7.9656c4.1574 3.2266 4.8556 5.7599 8.9805 8.9612 5.2586 4.0812 3.8488 5.8053 3.8488 7.9656 0 0.99027-16.846-1.775-17.961-1.9914-7.3904-1.4339-15.982-2.852-21.81-3.9828-6.7507-1.3098-12.778 1.2346-16.678 1.9914-5.4073 1.0492-11.072 1.9914-17.961 1.9914-5.079 0-11.31-0.99569-17.961-0.99569-5.079 0-11.31-0.99569-17.961-0.99569-4.9796 0-12.111-0.9957-17.961-0.9957h-19.244c-6.4249 0-12.386-1.0818-17.961 0-6.418 1.2453-7.8801-4.5494-8.9805-7.9656-1.5064-4.6766 1.2829-8.7444 1.2829-13.94v-14.935c0-4.9351-4.184-9.3081-7.6976-12.944-4.0113-4.151-6.2876-5.5799-7.6976-9.957-1.4998-4.656-6.1317-9.0785-7.6976-13.94-1.8122-5.6257-3.0783-11.748-6.4147-16.927-2.8972-4.497-7.1092-8.048-8.9805-10.953l-6.4147-9.957c-2.9222-4.536-5.5077-9.3503-8.9805-12.944-3.3447-3.4611-7.1951-7.5756-10.263-9.957-4.9135-3.8134-7.9343-5.1622-11.546-7.9656-4.0363-3.1326-5.0364-5.9002-8.9805-8.9613-2.2156-1.7195-4.3663-8.5766-5.1317-10.953-1.5461-4.7998 0.90179-7.778 2.5659-12.944 1.4322-4.446 3.7173-7.5574 5.1317-11.948 1.4876-4.6182 1.1388-9.5094 2.5659-13.94 1.491-4.6289 0-11.101 0-15.931 0-5.1128 1.8596-8.4132 5.1317-10.953 1.4099-1.0943 21.143 16.409 23.093 17.923 4.6206 3.5861 8.6931 13.048 10.263 17.923 1.6696 5.1833 9.0057 7.9851 11.546 9.9569 4.0367 3.133 11.908 5.9359 15.395 7.9656 2.0834 1.2127 5.2288 8.1163 6.4147 9.957 0.97739 1.5171 1.7233 2.0062 2.5659 2.9871" fill="url(#c)" fill-rule="evenodd"/>
 </g>
</svg>
