<?xml version="1.0" encoding="UTF-8"?>
<svg viewBox="0 0 377.08624 377.08621" xmlns="http://www.w3.org/2000/svg">
 <g transform="translate(-85.743 -163.82)" fill="none" stroke="#000">
  <path transform="matrix(.72239 0 0 .72239 274.29 352.36)" d="m250 0a250 250 0 1 1 -500 0 250 250 0 1 1 500 0z" stroke-linecap="square" stroke-linejoin="round" stroke-width="22"/>
  <path d="m93.689 352.36h361.19" stroke-width="9.391"/>
  <path d="m96.578 352.36h32.281" stroke-width="21.672"/>
  <path d="m419.71 352.36h32.281" stroke-width="21.672"/>
  <path d="m151.34 363.2v-21.672" stroke-width="9.391"/>
  <path d="m192.32 363.2v-21.672" stroke-width="9.391"/>
  <path d="m233.3 363.2v-21.672" stroke-width="9.391"/>
  <path d="m315.27 363.2v-21.672" stroke-width="9.391"/>
  <path d="m356.25 363.2v-21.672" stroke-width="9.391"/>
  <path d="m397.23 363.2v-21.672" stroke-width="9.391"/>
  <path d="m274.29 363.2v-21.672" stroke-width="9.391"/>
  <path d="m274.29 171.77v361.19" stroke-width="9.391"/>
  <path d="m274.29 174.65v32.281" stroke-width="21.672"/>
  <path d="m274.29 497.79v32.281" stroke-width="21.672"/>
  <path d="m263.45 229.41h21.672" stroke-width="9.391"/>
  <path d="m263.45 270.4h21.672" stroke-width="9.391"/>
  <path d="m263.45 311.38h21.672" stroke-width="9.391"/>
  <path d="m263.45 393.35h21.672" stroke-width="9.391"/>
  <path d="m263.45 434.33h21.672" stroke-width="9.391"/>
  <path d="m263.45 475.31h21.672" stroke-width="9.391"/>
  <path d="m263.45 352.36h21.672" stroke-width="9.391"/>
 </g>
</svg>
